<svg width="24" height="24" viewBox="0 0 24 24" fill="none" xmlns="http://www.w3.org/2000/svg">
<path d="M21.2108 15.343H7.93468L8.60127 14.1351L19.677 14.1173C20.0515 14.1173 20.3725 13.8793 20.4394 13.55L21.9732 5.91199C22.0134 5.71166 21.9532 5.50539 21.806 5.3487C21.7333 5.27159 21.6426 5.20947 21.5402 5.16666C21.4378 5.12385 21.3262 5.10137 21.213 5.10078L7.12317 5.05913L7.00279 4.55535C6.92699 4.23404 6.60149 4 6.23141 4H2.78698C2.57826 4 2.37809 4.07376 2.2305 4.20507C2.08291 4.33637 2 4.51445 2 4.70014C2 4.88582 2.08291 5.06391 2.2305 5.19521C2.37809 5.32651 2.57826 5.40027 2.78698 5.40027H5.5938L6.11994 7.62563L7.41523 13.2049L5.74763 15.6266C5.66103 15.7306 5.60887 15.8541 5.59705 15.9831C5.58523 16.1121 5.61422 16.2414 5.68075 16.3565C5.81451 16.5925 6.08427 16.7413 6.38301 16.7413H7.78308C7.4846 17.094 7.32338 17.5236 7.32382 17.965C7.32382 19.0876 8.34935 20 9.61119 20C10.873 20 11.8986 19.0876 11.8986 17.965C11.8986 17.5227 11.7336 17.0924 11.4393 16.7413H15.0309C14.7324 17.094 14.5712 17.5236 14.5716 17.965C14.5716 19.0876 15.5971 20 16.859 20C18.1208 20 19.1464 19.0876 19.1464 17.965C19.1464 17.5227 18.9814 17.0924 18.6871 16.7413H21.213C21.6455 16.7413 22 16.4279 22 16.0412C21.9987 15.8557 21.915 15.6782 21.7671 15.5474C21.6193 15.4166 21.4193 15.3431 21.2108 15.343ZM7.4509 6.43957L20.2878 6.47725L19.0304 12.7408L8.94683 12.7567L7.4509 6.43957ZM9.61119 18.5918C9.22327 18.5918 8.9067 18.3102 8.9067 17.965C8.9067 17.6199 9.22327 17.3383 9.61119 17.3383C9.99911 17.3383 10.3157 17.6199 10.3157 17.965C10.3157 18.1313 10.2415 18.2907 10.1093 18.4082C9.97722 18.5258 9.79803 18.5918 9.61119 18.5918ZM16.859 18.5918C16.4711 18.5918 16.1545 18.3102 16.1545 17.965C16.1545 17.6199 16.4711 17.3383 16.859 17.3383C17.2469 17.3383 17.5635 17.6199 17.5635 17.965C17.5635 18.1313 17.4893 18.2907 17.3571 18.4082C17.225 18.5258 17.0458 18.5918 16.859 18.5918Z" fill="#FF0000"/>
</svg>
