<svg width="131" height="127" viewBox="0 0 131 127" fill="none" xmlns="http://www.w3.org/2000/svg">
<path d="M130.5 63.5C130.5 98.2794 101.413 126.5 65.5 126.5C29.5868 126.5 0.5 98.2794 0.5 63.5C0.5 28.7206 29.5868 0.5 65.5 0.5C101.413 0.5 130.5 28.7206 130.5 63.5Z" fill="#FF0000" stroke="black"/>
<path d="M64.2929 84.7071C64.6834 85.0976 65.3166 85.0976 65.7071 84.7071L72.0711 78.3431C72.4616 77.9526 72.4616 77.3195 72.0711 76.9289C71.6805 76.5384 71.0474 76.5384 70.6569 76.9289L65 82.5858L59.3431 76.9289C58.9526 76.5384 58.3195 76.5384 57.9289 76.9289C57.5384 77.3195 57.5384 77.9526 57.9289 78.3431L64.2929 84.7071ZM64 35L64 84L66 84L66 35L64 35Z" fill="black"/>
</svg>
