<svg width="897" height="279" viewBox="0 0 897 279" fill="none" xmlns="http://www.w3.org/2000/svg">
<rect width="897" height="268" fill="#FF0000"/>
<path d="M62.7285 212.478L63.5342 192.995C63.5342 186.696 63.29 182.717 62.8018 181.057C62.3623 179.396 61.8984 177.932 61.4102 176.662C60.9219 175.393 60.2871 174.367 59.5059 173.586C58.7246 172.805 57.7969 172.072 56.7227 171.389C54.6719 170.021 51.4492 169.338 47.0547 169.338C42.6602 169.338 38.9492 171.12 35.9219 174.685C32.9434 178.249 31.4541 182.521 31.4541 187.502C31.4541 189.357 31.8203 192.116 32.5527 195.778C33.2852 199.489 33.6514 202.272 33.6514 204.128C33.6514 207.644 32.4063 209.401 29.916 209.401C27.4258 209.401 26.1807 207.692 26.1807 204.274C26.1807 202.37 26.5469 199.514 27.2793 195.705C28.0605 191.896 28.4512 189.016 28.4512 187.062L28.9639 167.434L28.9639 81.374C28.9639 78.3467 28.0117 75.9053 26.1074 74.0498L27.5723 72.5117C29.623 74.4648 32.0645 75.4414 34.8965 75.4414H61.4102C64.3398 75.4414 66.7812 74.4648 68.7344 72.5117L70.1992 74.0498C68.2949 75.9541 67.3428 78.3955 67.3428 81.374L67.3428 167.067C67.3428 169.606 67.0742 173.977 66.5371 180.178C66 186.428 65.8291 191.237 66.0244 194.606H65.9512C67.7578 202.712 68.6611 208.889 68.6611 213.137C68.6611 217.385 67.8555 219.509 66.2441 219.509C63.9004 219.509 62.7285 217.165 62.7285 212.478ZM110.931 195.705L112.688 175.856C112.688 174.294 111.81 173 110.052 171.975C107.171 170.363 103.655 169.558 99.5049 169.558C93.9385 169.558 90.1055 170.656 88.0059 172.854C87.0781 173.83 86.6143 175.246 86.6143 177.102C86.6143 179.006 87.1758 182.302 88.2988 186.989C89.4219 191.677 89.9834 194.973 89.9834 196.877C89.9834 198.83 89.6172 200.368 88.8848 201.491C88.2012 202.663 87.1758 203.249 85.8086 203.249C84.4414 203.249 83.3916 202.663 82.6592 201.491C81.9268 200.368 81.5605 198.83 81.5605 196.877C81.5605 194.924 82.1465 191.555 83.3184 186.77C84.5391 181.984 85.1494 178.371 85.1494 175.93L85.0762 86.1348C85.0762 80.373 83.3184 75.5635 79.8027 71.7061L81.3408 70.168C85.2959 73.6836 90.1055 75.4414 95.7695 75.4414H117.669C120.794 75.4414 123.431 75.0752 125.579 74.3428C127.776 73.5615 129.534 72.0479 130.853 69.8018L133.27 70.9736C132 74.001 131.365 76.8574 131.365 79.543C131.365 81.7402 135.223 87.2578 142.938 96.0957C152.996 107.619 159.466 115.358 162.347 119.313C165.228 123.269 167.107 126.467 167.986 128.908H172.381C169.988 125.393 168.792 120.437 168.792 114.04C168.792 111.062 169.158 106.618 169.891 100.71C170.623 94.7529 170.989 90.2852 170.989 87.3066C170.989 79.2988 168.45 74.0986 163.372 71.7061L164.91 70.168C168.865 73.6836 173.675 75.4414 179.339 75.4414H194.354C200.018 75.4414 204.827 73.6836 208.782 70.168L210.247 71.7061C206.78 75.6123 205.047 80.4219 205.047 86.1348L204.9 175.563C204.9 177.663 205.389 180.788 206.365 184.938C207.342 189.138 207.83 192.287 207.83 194.387C207.83 197.512 206.634 199.074 204.241 199.074C201.849 199.074 200.652 197.512 200.652 194.387C200.652 192.336 201.116 189.309 202.044 185.305C202.972 181.35 203.436 178.615 203.436 177.102C203.436 175.637 202.947 174.587 201.971 173.952C200.994 173.317 200.042 173 199.114 173H170.184C166.082 173 164.031 176.735 164.031 184.206C164.031 187.282 164.593 191.726 165.716 197.536C166.888 203.396 167.474 207.814 167.474 210.793C167.474 215.041 165.887 217.165 162.713 217.165C159.539 217.165 157.952 215.017 157.952 210.72C157.952 207.985 158.563 204.006 159.783 198.781C161.053 193.557 161.712 189.626 161.761 186.989L161.907 177.248C162.054 172.707 161.59 169.753 160.516 168.386L125.433 123.928C124.505 122.707 123.479 120.168 122.356 116.311L117.889 116.457C120.428 119.094 121.697 122.023 121.697 125.246V167.067L123.089 204.128C123.089 204.909 122.845 205.568 122.356 206.105C121.917 206.691 121.282 206.984 120.452 206.984C119.671 206.984 119.012 206.643 118.475 205.959C117.938 205.324 117.669 204.592 117.669 203.762L118.548 175.637C118.548 175.051 118.328 174.514 117.889 174.025C117.449 173.537 116.937 173.293 116.351 173.293C115.081 173.293 114.446 174.27 114.446 176.223C114.446 178.176 114.764 181.374 115.398 185.817C116.082 190.261 116.424 193.312 116.424 194.973C116.424 198.684 115.496 200.539 113.641 200.539C111.834 200.539 110.931 198.928 110.931 195.705ZM261.013 142.751L260.427 157.692C260.427 160.378 261.062 164.357 262.331 169.631C263.649 174.855 264.309 178.713 264.309 181.203C264.309 183.742 264.724 187.282 265.554 191.823C266.384 196.364 266.799 200.002 266.799 202.736C266.799 205.52 265.603 206.911 263.21 206.911C260.866 206.911 259.694 205.544 259.694 202.81C259.694 200.124 260.109 196.511 260.939 191.97C261.818 187.478 262.258 184.108 262.258 181.862C262.258 179.616 261.477 177.565 259.914 175.71C258.352 173.903 256.496 173 254.348 173C249.465 173 247.023 178.933 247.023 190.798C247.023 193.581 247.39 197.756 248.122 203.322C248.854 208.889 249.221 212.697 249.221 214.748C249.221 218.752 248.024 220.754 245.632 220.754C244.411 220.754 243.459 220.217 242.775 219.143C242.141 218.117 241.823 216.628 241.823 214.675C241.823 212.722 242.238 209.157 243.068 203.981C243.947 198.806 244.387 195.046 244.387 192.702C244.387 190.358 244.24 188.137 243.947 186.037C243.703 183.986 243.215 181.765 242.482 179.372C241.799 177.028 240.676 175.124 239.113 173.659C237.6 172.194 235.622 171.462 233.181 171.462C230.788 171.462 228.615 172.512 226.662 174.611C224.758 176.711 223.806 178.688 223.806 180.544C223.806 182.448 224.147 184.426 224.831 186.477C225.515 188.527 225.856 190.114 225.856 191.237C225.856 193.386 225.051 194.46 223.439 194.46C221.877 194.46 221.096 193.386 221.096 191.237L222.854 179.519L222.78 86.2812C222.78 80.5195 221.022 75.71 217.507 71.8525L218.972 70.3877C222.878 73.8545 227.688 75.5879 233.4 75.5879H317.922C323.635 75.5879 328.444 73.8545 332.351 70.3877L333.815 71.8525C330.349 75.7588 328.615 80.1533 328.615 85.0361C328.615 89.9189 328.933 93.7031 329.567 96.3887C330.202 99.0742 331.618 101.662 333.815 104.152L332.351 105.617C329.763 102.15 326.54 100.417 322.683 100.417H267.092C264.357 100.417 262.014 99.4893 260.061 97.6338L258.669 99.0254C260.524 100.979 261.452 103.347 261.452 106.13C261.452 108.913 260.524 111.281 258.669 113.234L260.061 114.626C261.672 113.063 263.601 112.062 265.847 111.623C268.142 111.184 270.852 110.964 273.977 110.964L301.809 112.502C306.35 112.502 310.354 112.111 313.82 111.33C317.336 110.549 320.339 108.962 322.829 106.569L324.294 108.034C320.632 112.038 318.801 117.58 318.801 124.66C318.801 131.74 320.485 137.038 323.854 140.554L322.316 142.019C317.873 138.063 310.695 136.086 300.783 136.086L273.391 137.624C266.701 137.624 262.136 136.403 259.694 133.962L258.303 135.427C260.109 137.282 261.013 139.724 261.013 142.751ZM382.97 160.842L381.798 151.76V150.954C382.823 149.147 384.215 148.244 385.973 148.244L445.738 148.317C448.717 148.317 451.134 147.365 452.989 145.461L454.454 146.926C451.72 151.955 450.353 161.062 450.353 174.245C450.353 176.296 450.792 180.251 451.671 186.11C452.599 192.019 453.062 195.925 453.062 197.829C453.062 199.782 452.745 201.223 452.11 202.15C451.476 203.078 450.719 203.542 449.84 203.542C448.961 203.542 448.18 203.029 447.496 202.004C446.861 200.979 446.544 199.562 446.544 197.756L447.716 181.569C447.716 177.272 446.959 174.05 445.445 171.901C443.932 169.704 441.881 168.605 439.293 168.605C433.482 168.605 430.577 172.976 430.577 181.716C430.577 185.085 431.065 189.968 432.042 196.364C433.067 202.761 433.58 206.765 433.58 208.376C433.58 209.987 433.214 211.208 432.481 212.038C431.749 212.917 430.895 213.356 429.918 213.356C428.99 213.356 428.16 212.941 427.428 212.111C426.744 211.33 426.402 210.256 426.402 208.889L427.721 185.524C427.721 176.979 425.89 172.707 422.228 172.707L416.661 172.854H359.093C354.747 172.854 351.549 173.684 349.498 175.344C347.154 177.297 345.982 182.814 345.982 191.896C345.982 195.559 346.544 200.954 347.667 208.083C348.79 215.261 349.352 220.656 349.352 224.27C349.352 229.494 347.496 232.106 343.785 232.106C339.781 232.106 337.779 229.421 337.779 224.05C337.779 220.388 338.585 214.968 340.196 207.79C341.808 200.612 342.613 195.168 342.613 191.457L342.247 166.921V81.5205C342.247 78.4932 341.319 76.0762 339.464 74.2695L340.929 72.7314C342.931 74.6357 345.372 75.5879 348.253 75.5879L442.296 75.5879C445.274 75.5879 447.716 74.6357 449.62 72.7314L451.085 74.2695C448.937 76.418 447.862 80.6172 447.862 86.8672V90.1631C447.862 95.6807 448.937 99.4648 451.085 101.516L449.62 102.907C447.179 100.417 441.441 99.1719 432.408 99.1719L396.007 100.856C387.022 100.856 381.31 99.6113 378.868 97.1211L377.33 98.5859C379.234 100.441 380.187 102.907 380.187 105.983C380.187 109.011 379.234 111.452 377.33 113.308L378.868 114.699C381.212 112.258 386.144 111.037 393.663 111.037L424.352 112.722C431.92 112.722 436.925 111.501 439.366 109.06L440.904 110.524C438.756 112.673 437.682 117.165 437.682 124.001V126.857C437.682 132.082 438.756 135.769 440.904 137.917L439.366 139.455C437.022 137.014 432.066 135.793 424.498 135.793L393.81 137.404C386.29 137.404 381.31 136.184 378.868 133.742L377.403 135.207C379.454 137.307 380.479 140.969 380.479 146.193L380.333 151.906L379.088 160.695C379.088 162.453 379.723 163.332 380.992 163.332C382.311 163.332 382.97 162.502 382.97 160.842ZM581.904 197.023L583.516 181.862C583.516 175.71 581.001 171.022 575.972 167.8C570.991 164.528 565.742 163.088 560.225 163.479C554.707 163.82 550.85 165.676 548.652 169.045C547.529 170.656 546.968 172.561 546.968 174.758L546.602 194.387C546.602 197.072 547.017 201.052 547.847 206.325C548.677 211.647 549.092 215.651 549.092 218.337C549.092 223.073 547.749 225.441 545.063 225.441C542.378 225.441 541.035 223.146 541.035 218.557C541.035 215.529 541.475 211.184 542.354 205.52C543.232 199.855 543.721 195.559 543.818 192.629C543.965 189.699 544.038 183.449 544.038 173.879C544.038 171.34 543.257 168.41 541.694 165.09C540.132 161.77 537.666 157.204 534.297 151.394C530.928 145.583 528.169 140.456 526.021 136.013L523.823 134.768C522.651 136.916 520.576 137.99 517.598 137.99L511.445 138.21C507.246 138.21 504.097 137.185 501.997 135.134L500.459 136.599C500.605 138.405 500.679 142.263 500.679 148.171L500.605 166.115C500.605 171.486 500.703 175.441 500.898 177.98L502.29 188.747C502.29 190.749 501.606 191.75 500.239 191.75C498.872 191.75 498.188 190.822 498.188 188.967L499.36 179.885C499.36 177.687 498.701 175.93 497.383 174.611C496.113 173.342 494.429 172.707 492.329 172.707C490.278 172.707 488.447 173.61 486.836 175.417C485.273 177.272 484.492 179.665 484.492 182.595C484.492 185.524 485.029 189.479 486.104 194.46C487.178 199.489 487.715 203.103 487.715 205.3C487.715 209.89 486.079 212.185 482.808 212.185C479.536 212.185 477.9 209.938 477.9 205.446C477.9 203.347 478.364 199.685 479.292 194.46C480.269 189.235 480.757 185.085 480.757 182.009C480.757 178.933 480.049 176.394 478.633 174.392C477.217 172.438 475.605 171.462 473.799 171.462C471.992 171.462 470.454 172.072 469.185 173.293C467.915 174.562 467.28 176.125 467.28 177.98L469.258 195.339C469.258 198.317 468.159 199.807 465.962 199.807C463.765 199.807 462.666 198.293 462.666 195.266C462.666 193.508 463.13 190.432 464.058 186.037C464.985 181.691 465.425 178.298 465.376 175.856C465.327 173.415 465.303 141.823 465.303 81.0811C465.303 78.0537 464.375 75.6367 462.52 73.8301L463.984 72.3652C465.889 74.2207 468.306 75.1484 471.235 75.1484L536.86 75.1484C547.114 75.1484 553.999 75.4658 557.515 76.1006C561.079 76.6865 564.18 77.3213 566.816 78.0049C569.502 78.6885 571.748 79.543 573.555 80.5684C575.41 81.5449 577.266 82.79 579.121 84.3037C581.025 85.7686 582.539 87.4531 583.662 89.3574C586.25 93.7031 587.544 98.3174 587.544 103.2C587.544 108.083 587.153 112.087 586.372 115.212C585.64 118.288 584.395 121.193 582.637 123.928C578.828 129.836 572.139 132.79 562.568 132.79L561.982 134.475C565.059 135.695 567.109 137.38 568.135 139.528C572.432 148.903 575.605 154.86 577.656 157.399C579.707 159.89 581.611 161.892 583.369 163.405C585.127 164.919 587.642 166.457 590.913 168.02C594.185 169.582 596.162 170.607 596.846 171.096C597.529 171.535 597.871 171.901 597.871 172.194C597.871 177.077 598.53 183.352 599.849 191.018C601.167 198.684 601.826 203.615 601.826 205.812C601.826 208.01 601.729 209.597 601.533 210.573C601.387 211.55 601.021 212.502 600.435 213.43C599.849 214.406 598.994 214.895 597.871 214.895C596.748 214.895 595.894 214.089 595.308 212.478C594.771 210.866 594.502 208.889 594.502 206.545C594.502 204.201 594.819 200.002 595.454 193.947C596.089 187.941 596.406 183.4 596.406 180.324C596.406 174.221 594.429 171.169 590.474 171.169C588.521 171.169 587.056 171.511 586.079 172.194C585.151 172.878 584.688 174.27 584.688 176.369C584.688 178.518 585.127 181.911 586.006 186.55C586.885 191.188 587.324 194.68 587.324 197.023C587.324 199.416 586.421 200.612 584.614 200.612C582.808 200.612 581.904 199.416 581.904 197.023ZM533.125 99.4648L515.84 99.9775C508.76 99.9775 504.146 98.9277 501.997 96.8281L500.459 98.2197C502.412 100.124 503.389 102.565 503.389 105.544V110.451C503.389 113.381 502.412 115.822 500.459 117.775L501.997 119.24C504.097 117.092 508.442 116.018 515.034 116.018L533.564 116.677C538.496 116.677 542.305 116.042 544.99 114.772C547.725 113.454 549.092 111.062 549.092 107.595C549.092 105.397 548.335 103.688 546.821 102.468C545.308 101.198 543.477 100.393 541.328 100.051C539.18 99.6602 536.445 99.4648 533.125 99.4648ZM634.062 195.705L635.819 175.856C635.819 174.294 634.94 173 633.183 171.975C630.302 170.363 626.786 169.558 622.636 169.558C617.069 169.558 613.236 170.656 611.137 172.854C610.209 173.83 609.745 175.246 609.745 177.102C609.745 179.006 610.307 182.302 611.43 186.989C612.553 191.677 613.114 194.973 613.114 196.877C613.114 198.83 612.748 200.368 612.016 201.491C611.332 202.663 610.307 203.249 608.939 203.249C607.572 203.249 606.522 202.663 605.79 201.491C605.058 200.368 604.691 198.83 604.691 196.877C604.691 194.924 605.277 191.555 606.449 186.77C607.67 181.984 608.28 178.371 608.28 175.93L608.207 86.1348C608.207 80.373 606.449 75.5635 602.934 71.7061L604.472 70.168C608.427 73.6836 613.236 75.4414 618.9 75.4414H640.8C643.925 75.4414 646.562 75.0752 648.71 74.3428C650.907 73.5615 652.665 72.0479 653.983 69.8018L656.4 70.9736C655.131 74.001 654.496 76.8574 654.496 79.543C654.496 81.7402 658.354 87.2578 666.068 96.0957C676.127 107.619 682.597 115.358 685.478 119.313C688.358 123.269 690.238 126.467 691.117 128.908H695.512C693.119 125.393 691.923 120.437 691.923 114.04C691.923 111.062 692.289 106.618 693.021 100.71C693.754 94.7529 694.12 90.2852 694.12 87.3066C694.12 79.2988 691.581 74.0986 686.503 71.7061L688.041 70.168C691.996 73.6836 696.806 75.4414 702.47 75.4414H717.484C723.148 75.4414 727.958 73.6836 731.913 70.168L733.378 71.7061C729.911 75.6123 728.178 80.4219 728.178 86.1348L728.031 175.563C728.031 177.663 728.52 180.788 729.496 184.938C730.473 189.138 730.961 192.287 730.961 194.387C730.961 197.512 729.765 199.074 727.372 199.074C724.979 199.074 723.783 197.512 723.783 194.387C723.783 192.336 724.247 189.309 725.175 185.305C726.103 181.35 726.566 178.615 726.566 177.102C726.566 175.637 726.078 174.587 725.102 173.952C724.125 173.317 723.173 173 722.245 173H693.314C689.213 173 687.162 176.735 687.162 184.206C687.162 187.282 687.724 191.726 688.847 197.536C690.019 203.396 690.604 207.814 690.604 210.793C690.604 215.041 689.018 217.165 685.844 217.165C682.67 217.165 681.083 215.017 681.083 210.72C681.083 207.985 681.693 204.006 682.914 198.781C684.184 193.557 684.843 189.626 684.892 186.989L685.038 177.248C685.185 172.707 684.721 169.753 683.646 168.386L648.563 123.928C647.636 122.707 646.61 120.168 645.487 116.311L641.02 116.457C643.559 119.094 644.828 122.023 644.828 125.246V167.067L646.22 204.128C646.22 204.909 645.976 205.568 645.487 206.105C645.048 206.691 644.413 206.984 643.583 206.984C642.802 206.984 642.143 206.643 641.605 205.959C641.068 205.324 640.8 204.592 640.8 203.762L641.679 175.637C641.679 175.051 641.459 174.514 641.02 174.025C640.58 173.537 640.067 173.293 639.481 173.293C638.212 173.293 637.577 174.27 637.577 176.223C637.577 178.176 637.895 181.374 638.529 185.817C639.213 190.261 639.555 193.312 639.555 194.973C639.555 198.684 638.627 200.539 636.771 200.539C634.965 200.539 634.062 198.928 634.062 195.705ZM806.995 184.865L807.508 177.834C807.508 176.613 806.922 175.661 805.75 174.978C804.578 174.343 803.309 174.025 801.941 174.025C800.574 174.025 799.354 174.392 798.279 175.124C797.205 175.856 796.668 176.906 796.668 178.273V195.119C796.668 197.561 797.181 201.149 798.206 205.886C799.231 210.622 799.744 213.991 799.744 215.993C799.744 218.044 799.305 219.729 798.426 221.047C797.547 222.365 796.326 223.024 794.764 223.024C793.25 223.024 792.103 222.341 791.321 220.974C790.54 219.606 790.149 217.824 790.149 215.627C790.149 213.43 790.711 209.621 791.834 204.201C792.957 198.781 793.519 194.582 793.519 191.604C793.519 179.543 791.272 173.513 786.78 173.513C780.726 173.513 777.698 173.269 777.698 172.78V172.927C777.698 176.296 778.431 181.228 779.896 187.722C781.409 194.265 782.166 198.952 782.166 201.784C782.166 204.616 781.653 206.936 780.628 208.742C779.603 210.598 778.016 211.525 775.867 211.525C773.768 211.525 772.107 210.646 770.887 208.889C769.715 207.131 769.129 204.836 769.129 202.004C769.129 199.221 769.837 194.411 771.253 187.575C772.669 180.788 773.377 175.637 773.377 172.121C761.805 168.459 753.089 162.478 747.229 154.177C741.419 145.876 738.514 135.622 738.514 123.415C738.514 98.1221 751.258 82.1553 776.746 75.5146C784.998 73.3662 793.519 72.292 802.308 72.292C811.146 72.292 818.641 72.7803 824.793 73.7568C830.994 74.7334 836.976 76.4668 842.737 78.957C848.548 81.3984 853.479 84.5234 857.532 88.332C861.634 92.0918 864.905 96.9746 867.347 102.98C869.788 108.937 871.009 115.749 871.009 123.415C871.009 139.04 866.614 151.149 857.825 159.743C849.036 168.288 836.683 173.537 820.765 175.49C820.569 175.832 820.472 176.369 820.472 177.102L820.838 181.13C820.838 183.62 820.154 184.865 818.787 184.865C817.42 184.865 816.736 183.669 816.736 181.276L816.956 177.175C816.956 175.71 815.906 174.978 813.807 174.978C813.611 175.417 813.514 176.247 813.514 177.468L813.88 184.572C813.88 186.037 813.611 187.453 813.074 188.82C812.537 190.187 811.634 190.871 810.364 190.871C808.118 190.871 806.995 188.869 806.995 184.865ZM779.31 123.488C779.31 141.359 787.806 150.295 804.798 150.295C821.79 150.295 830.286 141.359 830.286 123.488C830.286 115.285 828.089 109.011 823.694 104.665C819.3 100.319 813.001 98.1465 804.798 98.1465C796.595 98.1465 790.296 100.319 785.901 104.665C781.507 109.011 779.31 115.285 779.31 123.488Z" fill="white"/>
</svg>
