<svg width="365" height="332" viewBox="0 0 365 332" fill="none" xmlns="http://www.w3.org/2000/svg">
<path d="M338.768 104.928L295.041 29.1337C284.647 11.1205 265.446 0 244.632 0H120.312C100.062 0 81.3985 10.5824 70.8252 27.7757L107.563 21.088L338.742 104.928H338.768Z" fill="#FF0000"/>
<path d="M120.338 332H244.658C265.446 332 284.673 320.905 295.067 302.866L318.134 262.894L95.2747 326.183C103.006 329.873 111.506 332 120.364 332H120.338Z" fill="#FF0000"/>
<path d="M63.7343 39.8965L7.79558 136.906C-2.59853 154.92 -2.59853 177.135 7.79558 195.148L69.9554 302.894C71.3891 305.405 73.0532 307.737 74.8197 309.966L216.011 239.374L63.7343 39.8965Z" fill="#FF0000"/>
<path d="M357.201 136.907L341.303 109.336L222.308 108.055L323.51 253.518L357.201 195.123C367.595 177.11 367.595 154.894 357.201 136.881V136.907Z" fill="#FF0000"/>
</svg>
