<svg width="572" height="204" viewBox="0 0 572 204" fill="none" xmlns="http://www.w3.org/2000/svg">
<path d="M107.616 39.6387L109.101 18.4863C109.101 12.1777 107.647 7.56999 104.74 4.66309L106.596 2.71484C109.132 5.1888 112.224 6.42578 115.873 6.42578H148.622C152.333 6.42578 155.425 5.1888 157.899 2.71484L159.755 4.66309C157.343 7.0752 156.137 10.1676 156.137 13.9404V122.485C156.137 126.196 157.343 129.289 159.755 131.763L157.899 133.618C155.487 131.206 152.395 130 148.622 130H115.873C112.1 130 109.008 131.206 106.596 133.618L104.74 131.763C107.09 129.412 108.266 126.32 108.266 122.485L108.08 91.3135C108.08 87.6025 109.255 84.541 111.605 82.1289L109.75 80.2734C107.4 82.6237 104.307 83.7988 100.473 83.7988H62.4355C58.6628 83.7988 55.5703 82.6237 53.1582 80.2734L51.3027 82.1289C51.4264 83.5514 51.4883 91.0352 51.4883 104.58V146.421C51.4883 152.049 52.1995 160.028 53.6221 170.356C55.0446 180.685 55.7559 187.983 55.7559 192.251C55.7559 196.519 55.2301 199.425 54.1787 200.972C53.1891 202.518 51.9831 203.291 50.5605 203.291C49.138 203.291 47.901 202.518 46.8496 200.972C45.86 199.487 45.3652 197.941 45.3652 196.333C45.3652 194.787 45.6745 191.169 46.293 185.479C48.1484 168.285 49.0762 155.358 49.0762 146.699C49.0762 142.432 47.7773 138.721 45.1797 135.566C40.1081 129.443 33.1501 126.382 24.3057 126.382C19.7907 126.382 15.987 127.433 12.8945 129.536C9.86393 131.639 8.34863 134.546 8.34863 138.257C8.34863 142.03 8.9362 147.534 10.1113 154.771C11.3483 162.007 11.9668 167.017 11.9668 169.8C11.9668 175.552 10.1732 178.428 6.58594 178.428C4.91602 178.428 3.49349 177.778 2.31836 176.479C1.14323 175.243 0.555664 173.171 0.555664 170.264C0.555664 167.419 1.54525 162.285 3.52441 154.863C5.56543 147.441 6.58594 141.659 6.58594 137.515V13.9404C6.58594 10.0439 5.41081 6.9515 3.06055 4.66309L4.82324 2.71484C7.35905 5.1888 10.4515 6.42578 14.1006 6.42578H47.4062C51.0553 6.42578 54.1169 5.1888 56.5908 2.71484L58.5391 4.66309C55.694 7.50814 54.2715 12.1468 54.2715 18.5791L55.6631 39.917C55.6631 46.2874 54.2096 50.9261 51.3027 53.833L53.1582 55.7812C55.5703 53.3691 58.6628 52.1631 62.4355 52.1631H100.844C104.617 52.1631 107.678 53.3691 110.028 55.7812L111.977 53.833C109.07 50.8643 107.616 46.1328 107.616 39.6387ZM255.23 145.029L255.879 136.123C255.879 134.577 255.137 133.371 253.653 132.505C252.168 131.701 250.56 131.299 248.829 131.299C247.097 131.299 245.551 131.763 244.19 132.69C242.829 133.618 242.149 134.948 242.149 136.68V158.018C242.149 161.11 242.798 165.656 244.097 171.655C245.396 177.655 246.045 181.922 246.045 184.458C246.045 187.056 245.489 189.189 244.375 190.859C243.262 192.529 241.716 193.364 239.737 193.364C237.819 193.364 236.366 192.498 235.376 190.767C234.387 189.035 233.892 186.777 233.892 183.994C233.892 181.211 234.603 176.387 236.026 169.521C237.448 162.656 238.16 157.337 238.16 153.564C238.16 138.288 235.315 130.649 229.624 130.649C221.955 130.649 218.121 130.34 218.121 129.722V129.907C218.121 134.175 219.048 140.422 220.904 148.647C222.821 156.935 223.78 162.873 223.78 166.46C223.78 170.047 223.13 172.985 221.831 175.273C220.533 177.624 218.523 178.799 215.801 178.799C213.142 178.799 211.039 177.686 209.493 175.459C208.008 173.232 207.266 170.326 207.266 166.738C207.266 163.213 208.163 157.121 209.956 148.462C211.75 139.865 212.647 133.34 212.647 128.887C197.989 124.248 186.949 116.672 179.527 106.157C172.167 95.6429 168.487 82.6546 168.487 67.1924C168.487 35.1546 184.629 14.93 216.914 6.51855C227.367 3.7972 238.16 2.43652 249.292 2.43652C260.487 2.43652 269.981 3.05501 277.774 4.29199C285.629 5.52897 293.205 7.72461 300.503 10.8789C307.863 13.9714 314.11 17.9297 319.244 22.7539C324.439 27.5163 328.583 33.7012 331.675 41.3086C334.768 48.8542 336.314 57.4821 336.314 67.1924C336.314 86.984 330.747 102.323 319.615 113.208C308.482 124.032 292.834 130.68 272.671 133.154C272.424 133.587 272.3 134.268 272.3 135.195L272.764 140.298C272.764 143.452 271.898 145.029 270.166 145.029C268.435 145.029 267.569 143.514 267.569 140.483L267.847 135.288C267.847 133.433 266.517 132.505 263.858 132.505C263.61 133.062 263.487 134.113 263.487 135.659L263.951 144.658C263.951 146.514 263.61 148.307 262.93 150.039C262.25 151.771 261.106 152.637 259.497 152.637C256.652 152.637 255.23 150.101 255.23 145.029ZM220.162 67.2852C220.162 89.9219 230.923 101.24 252.447 101.24C273.97 101.24 284.732 89.9219 284.732 67.2852C284.732 56.8945 281.949 48.9469 276.382 43.4424C270.816 37.9378 262.837 35.1855 252.447 35.1855C242.056 35.1855 234.078 37.9378 228.511 43.4424C222.945 48.9469 220.162 56.8945 220.162 67.2852ZM380.856 160.43C378.382 160.43 377.145 158.605 377.145 154.956C377.145 151.307 377.578 146.39 378.444 140.205C379.31 134.082 379.743 129.722 379.743 127.124C379.743 124.526 379.557 122.547 379.186 121.187L341.52 11.6211C340.16 7.84831 338.119 5.03418 335.397 3.17871L336.696 1.32324C339.665 3.36426 342.974 4.38477 346.623 4.38477H380.671C384.505 4.38477 387.35 3.08594 389.206 0.488281L391.618 2.34375C390.319 4.01367 389.67 6.20931 389.67 8.93066C389.67 11.652 390.628 15.9814 392.546 21.9189C394.463 27.7946 396.566 33.4538 398.854 38.8965C404.916 53.4928 407.946 65.0895 407.946 73.6865H409.152C409.152 65.4606 412.801 53.833 420.099 38.8037C427.459 23.7126 431.139 13.1673 431.139 7.16797C431.139 5.49805 430.583 3.85905 429.47 2.25098L431.882 0.395508C433.737 3.05501 436.551 4.38477 440.324 4.38477H466.579C470.29 4.38477 473.073 3.05501 474.929 0.395508L477.433 2.25098C476.258 3.7972 475.671 5.80729 475.671 8.28125C475.671 10.7552 476.784 14.9919 479.011 20.9912C481.299 26.9287 483.804 32.7116 486.525 38.3398C493.823 53.431 497.534 65.2132 497.658 73.6865H498.864C498.864 64.8421 501.895 53.2764 507.956 38.9893C514.017 24.6403 517.048 14.2188 517.048 7.72461C517.048 5.68359 516.46 3.88997 515.285 2.34375L517.697 0.488281C519.553 3.08594 522.398 4.38477 526.232 4.38477H560.28C563.929 4.38477 567.238 3.36426 570.207 1.32324L571.413 3.17871C568.692 5.03418 566.681 7.84831 565.383 11.6211C564.95 12.9199 563.063 18.208 559.723 27.4854C556.384 36.7627 553.044 46.1637 549.704 55.6885C546.364 65.1514 542.901 75.14 539.313 85.6543C531.087 109.466 526.974 122.485 526.974 124.712C526.974 126.938 527.562 128.825 528.737 130.371L526.232 132.227C524.377 129.567 521.563 128.237 517.79 128.237L483.371 128.145C479.536 128.145 476.722 129.443 474.929 132.041L472.424 130.371C473.537 128.887 474.094 126.846 474.094 124.248C474.094 121.589 473.042 117.414 470.939 111.724C468.836 105.972 466.517 100.467 463.981 95.21C457.302 81.1084 453.962 70.0374 453.962 61.9971H452.848C452.848 70.1611 449.478 81.2939 442.736 95.3955C435.995 109.435 432.624 119.393 432.624 125.269C432.624 127.248 433.211 128.949 434.387 130.371L431.882 132.041C430.088 129.443 427.274 128.145 423.439 128.145L389.113 128.237C385.464 128.237 383.639 129.32 383.639 131.484L385.217 154.214C385.217 155.76 384.846 157.183 384.103 158.481C383.361 159.78 382.279 160.43 380.856 160.43Z" fill="#FF0000"/>
</svg>
