<svg width="169" height="25" viewBox="0 0 169 25" fill="none" xmlns="http://www.w3.org/2000/svg">
<g clip-path="url(#clip0_255_162)">
<path d="M31.4352 7.89979L27.3778 2.19201C26.4134 0.835497 24.6318 -0.00195312 22.7005 -0.00195312H11.1651C9.28606 -0.00195312 7.55432 0.794975 6.57324 2.08974L9.98208 1.58611L31.4328 7.89979H31.4352Z" fill="#FF0000"/>
<path d="M11.1674 25.0001H22.7028C24.6317 25.0001 26.4157 24.1645 27.3802 22.8061L29.5205 19.7959L8.8418 24.562C9.5592 24.8399 10.3479 25.0001 11.1698 25.0001H11.1674Z" fill="#FF0000"/>
<path d="M5.91527 3.00293L0.724804 10.3084C-0.239648 11.6649 -0.239648 13.3379 0.724804 14.6944L6.49251 22.8084C6.62554 22.9975 6.77995 23.1731 6.94386 23.341L20.0447 18.0249L5.91527 3.00293Z" fill="#FF0000"/>
<path d="M33.1454 10.3075L31.6702 8.23125L20.6289 8.13477L30.0192 19.0892L33.1454 14.6916C34.1099 13.3351 34.1099 11.6621 33.1454 10.3056V10.3075Z" fill="#FF0000"/>
<path d="M39.6304 16.1279C40.2171 16.8766 40.8324 17.4323 41.4714 17.7913C42.146 18.1579 42.8634 18.3412 43.6212 18.3412C44.3339 18.3412 44.9776 18.183 45.5478 17.8684C46.1203 17.552 46.4837 17.1526 46.6429 16.6682C46.8139 16.1395 46.7545 15.7246 46.4647 15.4236C46.1416 15.138 45.3221 14.839 44.0061 14.5321C42.2126 14.1057 41.0248 13.5558 40.4404 12.8804C39.8513 12.1896 39.7515 11.2499 40.1387 10.0612C40.64 8.51949 41.6852 7.26331 43.2744 6.29465C44.847 5.31827 46.65 4.83008 48.681 4.83008C49.826 4.83008 50.8261 4.95164 51.6789 5.19284C52.5792 5.43597 53.3893 5.79488 54.1138 6.2715L51.3867 9.43219C50.9283 9.01347 50.3985 8.69122 49.807 8.46353C49.225 8.25127 48.624 8.14321 48.0016 8.14321C47.3793 8.14321 46.7996 8.27057 46.2913 8.52914C45.8067 8.77227 45.4979 9.09451 45.3672 9.4978C45.2413 9.88758 45.3126 10.2098 45.581 10.4665C45.8732 10.7096 46.4932 10.9392 47.4434 11.1611C47.4767 11.1688 47.5075 11.1746 47.5337 11.1766C47.5598 11.1804 47.5978 11.1901 47.6453 11.2036C49.6954 11.6802 50.9781 12.2166 51.4889 12.8109C51.8286 13.1853 52.0352 13.66 52.1113 14.2311C52.1706 14.7753 52.0875 15.3908 51.8618 16.0816C51.3083 17.7855 50.1681 19.1632 48.4459 20.211C46.7165 21.2472 44.7045 21.7643 42.4097 21.7643C40.9987 21.7643 39.8014 21.5771 38.8156 21.2028C37.8298 20.8285 36.9342 20.2264 36.1289 19.3967L39.6304 16.126V16.1279Z" fill="white"/>
<path d="M54.6649 21.3377L58.6676 9.02484H54.2207L55.4583 5.21387H69.7636L68.5259 9.02484H64.079L60.0763 21.3377H54.6673H54.6649Z" fill="white"/>
<path d="M65.915 21.3377L71.1554 5.21387H76.619L71.3787 21.3377H65.915Z" fill="white"/>
<path d="M93.78 5.84115L92.2193 10.6439C91.6634 9.96086 91.0933 9.46495 90.5066 9.15621C89.8367 8.85519 89.0884 8.70468 88.2665 8.70468C86.72 8.70468 85.3209 9.13499 84.0642 9.99366C83.6295 10.3024 83.2542 10.6227 82.9382 10.9585C82.6223 11.2923 82.342 11.6705 82.1021 12.0931C81.8598 12.5157 81.6697 12.944 81.5296 13.3763C81.1091 14.6691 81.2469 15.7439 81.9453 16.6026C82.6555 17.4477 83.7697 17.8684 85.29 17.8684C86.1024 17.8684 86.9504 17.7102 87.8294 17.3956C88.6085 17.1101 89.5017 16.618 90.5066 15.9195L88.9411 20.7319C87.8128 21.114 86.8768 21.3668 86.1333 21.4922C85.1997 21.662 84.316 21.745 83.4751 21.745C82.4085 21.745 81.4393 21.6408 80.5675 21.4304C79.6957 21.222 78.9593 20.9037 78.3559 20.4772C77.1444 19.6552 76.3462 18.6422 75.9614 17.4381C75.5932 16.1896 75.655 14.8061 76.1491 13.2856C76.5458 12.0661 77.161 10.9469 77.9996 9.92613C78.3844 9.43408 78.8215 8.96904 79.3132 8.53295C79.8026 8.09686 80.3988 7.6434 81.1044 7.17257C82.3111 6.37951 83.5677 5.79098 84.8743 5.41084C86.1737 5.02299 87.5419 4.82617 88.9791 4.82617C89.801 4.82617 90.6325 4.90722 91.4734 5.0693C92.2953 5.26033 93.065 5.51697 93.7824 5.84115H93.78Z" fill="white"/>
<path d="M90.4042 21.3377L95.6446 5.21387H101.001L98.6211 12.5387L107.28 5.21387H113.584L103.693 13.077L108.981 21.3377H102.227L98.1103 14.1016L95.7586 21.3377H90.4019H90.4042Z" fill="white"/>
<path d="M169 5.21733L158.474 5.20961L153.642 9.78664L155.087 5.20575L146.818 5.19996L138.351 5.19417L136.09 11.6564L133.94 5.19224L126.517 5.18838L116.68 5.18066L111.561 21.3315L119.951 21.3373L128.548 21.3431L130.681 15.0969L132.969 21.345L141.744 21.3508L149.97 21.3566L151.588 16.301L153.148 21.3585L163.8 21.3662L159.831 12.8509L169.005 5.2154L169 5.21733ZM117.782 6.34036L124.673 6.34422L120.269 20.1795L113.397 20.1756L117.782 6.34036ZM130.633 10.9058L127.462 20.1853L121.792 20.1814L126.215 6.34615L132.847 6.35001L136.052 15.9942L139.425 6.35387L144.903 6.35773L140.499 20.193L134.03 20.1892L130.633 10.9039V10.9058ZM161.731 20.2085L154.258 20.2027L152.288 13.8195L150.908 13.8157L148.868 20.2007L142.107 20.1969L146.454 6.36158L153.251 6.36544L151.505 11.9073L152.737 12.4283L159.132 6.3693L165.622 6.37316L158.175 12.573L161.733 20.2085H161.731Z" fill="white"/>
</g>
<defs>
<clipPath id="clip0_255_162">
<rect width="169" height="25" fill="white"/>
</clipPath>
</defs>
</svg>
