<svg width="352" height="195" viewBox="0 0 352 195" fill="none" xmlns="http://www.w3.org/2000/svg">
<path d="M152.023 158.43L154.064 139.226C154.064 131.433 150.879 125.495 144.509 121.413C138.2 117.269 131.551 115.445 124.562 115.939C117.574 116.372 112.688 118.723 109.904 122.99C108.482 125.031 107.771 127.443 107.771 130.227L107.307 155.09C107.307 158.492 107.832 163.532 108.884 170.212C109.935 176.953 110.461 182.025 110.461 185.427C110.461 191.426 108.76 194.426 105.358 194.426C101.957 194.426 100.256 191.519 100.256 185.705C100.256 181.87 100.812 176.366 101.926 169.191C103.039 162.017 103.658 156.574 103.781 152.863C103.967 149.152 104.06 141.236 104.06 129.113C104.06 125.897 103.07 122.186 101.091 117.98C99.1117 113.775 95.9883 107.992 91.7207 100.632C87.4531 93.2718 83.9587 86.7777 81.2373 81.1494L78.4541 79.5723C76.9697 82.2936 74.3411 83.6543 70.5684 83.6543L62.7754 83.9326C57.4564 83.9326 53.4671 82.6338 50.8076 80.0361L48.8594 81.8916C49.0449 84.18 49.1377 89.0661 49.1377 96.5498L49.0449 119.279C49.0449 126.083 49.1686 131.092 49.416 134.309L51.1787 147.946C51.1787 150.482 50.3128 151.75 48.5811 151.75C46.8493 151.75 45.9834 150.575 45.9834 148.225L47.4678 136.721C47.4678 133.938 46.6328 131.711 44.9629 130.041C43.3548 128.433 41.221 127.629 38.5615 127.629C35.9639 127.629 33.6445 128.773 31.6035 131.062C29.6243 133.412 28.6348 136.442 28.6348 140.153C28.6348 143.864 29.3151 148.874 30.6758 155.183C32.0365 161.553 32.7168 166.13 32.7168 168.913C32.7168 174.727 30.6449 177.634 26.501 177.634C22.3571 177.634 20.2852 174.789 20.2852 169.099C20.2852 166.439 20.8727 161.8 22.0479 155.183C23.2848 148.565 23.9033 143.308 23.9033 139.411C23.9033 135.515 23.0065 132.299 21.2129 129.763C19.4193 127.289 17.3783 126.052 15.0898 126.052C12.8014 126.052 10.8532 126.825 9.24512 128.371C7.63704 129.979 6.83301 131.958 6.83301 134.309L9.33789 156.296C9.33789 160.069 7.94629 161.955 5.16309 161.955C2.37988 161.955 0.988281 160.038 0.988281 156.203C0.988281 153.977 1.57585 150.08 2.75098 144.514C3.92611 139.009 4.48275 134.711 4.4209 131.618C4.35905 128.526 4.32812 88.5094 4.32812 11.5693C4.32812 7.7347 3.15299 4.67318 0.802734 2.38477L2.6582 0.529297C5.07031 2.87956 8.13184 4.05469 11.8428 4.05469H94.9678C107.956 4.05469 116.677 4.45671 121.13 5.26074C125.645 6.00293 129.572 6.80697 132.912 7.67285C136.314 8.53874 139.159 9.62109 141.447 10.9199C143.798 12.1569 146.148 13.734 148.498 15.6514C150.91 17.5068 152.827 19.6406 154.25 22.0527C157.528 27.5573 159.167 33.402 159.167 39.5869C159.167 45.7718 158.672 50.8434 157.683 54.8018C156.755 58.6982 155.178 62.3783 152.951 65.8418C148.127 73.3255 139.654 77.0674 127.531 77.0674L126.789 79.2012C130.686 80.7474 133.283 82.8812 134.582 85.6025C140.025 97.4775 144.045 105.023 146.643 108.239C149.24 111.394 151.652 113.929 153.879 115.847C156.105 117.764 159.291 119.712 163.435 121.691C167.578 123.671 170.083 124.969 170.949 125.588C171.815 126.145 172.248 126.608 172.248 126.979C172.248 133.164 173.083 141.112 174.753 150.822C176.423 160.533 177.258 166.779 177.258 169.562C177.258 172.346 177.134 174.356 176.887 175.593C176.701 176.83 176.237 178.036 175.495 179.211C174.753 180.448 173.671 181.066 172.248 181.066C170.826 181.066 169.743 180.046 169.001 178.005C168.321 175.964 167.98 173.459 167.98 170.49C167.98 167.521 168.382 162.202 169.187 154.533C169.991 146.926 170.393 141.174 170.393 137.277C170.393 129.546 167.888 125.681 162.878 125.681C160.404 125.681 158.549 126.114 157.312 126.979C156.136 127.845 155.549 129.608 155.549 132.268C155.549 134.989 156.105 139.287 157.219 145.163C158.332 151.039 158.889 155.461 158.889 158.43C158.889 161.46 157.744 162.976 155.456 162.976C153.168 162.976 152.023 161.46 152.023 158.43ZM90.2363 34.8555L68.3418 35.5049C59.3737 35.5049 53.529 34.1751 50.8076 31.5156L48.8594 33.2783C51.3333 35.6904 52.5703 38.7829 52.5703 42.5557V48.7715C52.5703 52.4824 51.3333 55.5749 48.8594 58.0488L50.8076 59.9043C53.4671 57.1829 58.9717 55.8223 67.3213 55.8223L90.793 56.6572C97.0397 56.6572 101.864 55.8532 105.266 54.2451C108.729 52.5752 110.461 49.5446 110.461 45.1533C110.461 42.3701 109.502 40.2054 107.585 38.6592C105.668 37.0511 103.348 36.0306 100.627 35.5977C97.9056 35.1029 94.4421 34.8555 90.2363 34.8555ZM228.665 93.1172C231.449 94.4779 232.84 97.0137 232.84 100.725V120.485C232.84 124.258 234.046 127.351 236.458 129.763L234.603 131.618C232.191 129.206 229.098 128 225.326 128H193.133C189.36 128 186.268 129.206 183.856 131.618L182 129.763C184.413 127.351 185.619 124.258 185.619 120.485V11.9404C185.619 8.16764 184.413 5.0752 182 2.66309L183.856 0.714844C186.33 3.1888 189.422 4.42578 193.133 4.42578H225.326C229.037 4.42578 232.129 3.1888 234.603 0.714844L236.458 2.66309C234.046 5.0752 232.84 8.16764 232.84 11.9404V40.793C232.84 44.5039 232.098 48.0602 230.614 51.4619L232.005 52.0186C233.428 48.6787 235.5 45.71 238.221 43.1123L273.197 9.62109C274.619 8.26042 275.485 7.02344 275.794 5.91016C276.165 4.79688 276.073 3.3125 275.516 1.45703L278.763 0.250977C279.938 3.03418 282.381 4.42578 286.092 4.42578H332.664C336.128 4.42578 339.715 3.74544 343.426 2.38477L343.89 3.68359C340.427 4.98242 337.303 6.86882 334.52 9.34277L296.854 42.0918C294.133 44.5658 291.071 45.5863 287.669 45.1533L287.298 48.0293C290.638 48.3385 293.359 50.0703 295.462 53.2246L343.519 121.784C345.622 124.877 348.281 127.289 351.497 129.021L350.663 130.505C347.508 128.835 344.045 128 340.272 128H295.462C291.751 128 289.154 129.392 287.669 132.175L284.701 130.598C285.566 128.804 285.907 127.32 285.721 126.145C285.536 124.908 284.886 123.423 283.773 121.691L257.24 82.541C255.199 79.3867 254.395 76.1087 254.828 72.707L252.323 72.4287C251.89 75.7686 250.189 78.6445 247.22 81.0566L238.685 88.3857C237.077 89.6846 235.685 90.4577 234.51 90.7051C233.397 90.9525 231.943 90.736 230.15 90.0557L228.665 93.1172Z" fill="#FF0000"/>
</svg>
