<svg width="712" height="130" viewBox="0 0 712 130" fill="none" xmlns="http://www.w3.org/2000/svg">
<g clip-path="url(#clip0_106_448)">
<path d="M132.33 40.9402L115.25 11.3602C111.19 4.33023 103.69 -0.00976562 95.5599 -0.00976562H46.9999C39.0899 -0.00976562 31.7999 4.12023 27.6699 10.8302L42.0199 8.22023L132.32 40.9402H132.33Z" fill="#FF0000"/>
<path d="M47.0097 129.56H95.5697C103.69 129.56 111.2 125.23 115.26 118.19L124.27 102.59L37.2197 127.29C40.2397 128.73 43.5597 129.56 47.0197 129.56H47.0097Z" fill="#FF0000"/>
<path d="M24.8999 15.5605L3.04988 53.4205C-1.01012 60.4505 -1.01012 69.1205 3.04988 76.1505L27.3299 118.201C27.8899 119.181 28.5399 120.091 29.2299 120.961L84.3799 93.4106L24.8999 15.5605Z" fill="#FF0000"/>
<path d="M139.53 53.4202L133.32 42.6602L86.8398 42.1602L126.37 98.9302L139.53 76.1402C143.59 69.1102 143.59 60.4402 139.53 53.4102V53.4202Z" fill="#FF0000"/>
<path d="M166.83 83.5793C169.3 87.4593 171.89 90.3393 174.58 92.1993C177.42 94.0993 180.44 95.0493 183.63 95.0493C186.63 95.0493 189.34 94.2293 191.74 92.5993C194.15 90.9593 195.68 88.8893 196.35 86.3793C197.07 83.6393 196.82 81.4893 195.6 79.9293C194.24 78.4493 190.79 76.8993 185.25 75.3093C177.7 73.0993 172.7 70.2493 170.24 66.7493C167.76 63.1693 167.34 58.2993 168.97 52.1393C171.08 44.1493 175.48 37.6393 182.17 32.6193C188.79 27.5593 196.38 25.0293 204.93 25.0293C209.75 25.0293 213.96 25.6593 217.55 26.9093C221.34 28.1693 224.75 30.0293 227.8 32.4993L216.32 48.8793C214.39 46.7093 212.16 45.0393 209.67 43.8593C207.22 42.7593 204.69 42.1993 202.07 42.1993C199.45 42.1993 197.01 42.8593 194.87 44.1993C192.83 45.4593 191.53 47.1293 190.98 49.2193C190.45 51.2393 190.75 52.9093 191.88 54.2393C193.11 55.4993 195.72 56.6893 199.72 57.8393C199.86 57.8793 199.99 57.9093 200.1 57.9193C200.21 57.9393 200.37 57.9893 200.57 58.0593C209.2 60.5293 214.6 63.3093 216.75 66.3893C218.18 68.3293 219.05 70.7893 219.37 73.7493C219.62 76.5693 219.27 79.7593 218.32 83.3393C215.99 92.1693 211.19 99.3093 203.94 104.739C196.66 110.109 188.19 112.789 178.53 112.789C172.59 112.789 167.55 111.819 163.4 109.879C159.25 107.939 155.48 104.819 152.09 100.519L166.83 83.5693V83.5793Z" fill="#FF0000"/>
<path d="M230.12 110.58L246.97 46.7695H228.25L233.46 27.0195H293.68L288.47 46.7695H269.75L252.9 110.58H230.13H230.12Z" fill="#FF0000"/>
<path d="M277.48 110.58L299.54 27.0195H322.54L300.48 110.58H277.48Z" fill="#FF0000"/>
<path d="M394.78 30.2698L388.21 55.1598C385.87 51.6198 383.47 49.0498 381 47.4498C378.18 45.8898 375.03 45.1098 371.57 45.1098C365.06 45.1098 359.17 47.3398 353.88 51.7898C352.05 53.3898 350.47 55.0498 349.14 56.7898C347.81 58.5198 346.63 60.4798 345.62 62.6698C344.6 64.8598 343.8 67.0798 343.21 69.3198C341.44 76.0198 342.02 81.5898 344.96 86.0398C347.95 90.4198 352.64 92.5998 359.04 92.5998C362.46 92.5998 366.03 91.7798 369.73 90.1498C373.01 88.6698 376.77 86.1198 381 82.4998L374.41 107.44C369.66 109.42 365.72 110.73 362.59 111.38C358.66 112.26 354.94 112.69 351.4 112.69C346.91 112.69 342.83 112.15 339.16 111.06C335.49 109.98 332.39 108.33 329.85 106.12C324.75 101.86 321.39 96.6098 319.77 90.3698C318.22 83.8998 318.48 76.7298 320.56 68.8498C322.23 62.5298 324.82 56.7298 328.35 51.4398C329.97 48.8898 331.81 46.4798 333.88 44.2198C335.94 41.9598 338.45 39.6098 341.42 37.1698C346.5 33.0598 351.79 30.0098 357.29 28.0398C362.76 26.0298 368.52 25.0098 374.57 25.0098C378.03 25.0098 381.53 25.4298 385.07 26.2698C388.53 27.2598 391.77 28.5898 394.79 30.2698H394.78Z" fill="#FF0000"/>
<path d="M380.57 110.58L402.63 27.0195H425.18L415.16 64.9795L451.61 27.0195H478.15L436.51 67.7695L458.77 110.58H430.34L413.01 73.0795L403.11 110.58H380.56H380.57Z" fill="#FF0000"/>
<path d="M711.43 27.0396L667.12 26.9996L646.78 50.7196L652.86 26.9796L618.05 26.9496L582.41 26.9196L572.89 60.4096L563.84 26.9096L532.59 26.8896L491.18 26.8496L469.63 110.55L504.95 110.58L541.14 110.61L550.12 78.2396L559.75 110.62L596.69 110.65L631.32 110.68L638.13 84.4796L644.7 110.69L689.54 110.73L672.83 66.5996L711.45 27.0296L711.43 27.0396ZM495.82 32.8596L524.83 32.8796L506.29 104.58L477.36 104.56L495.82 32.8596ZM549.92 56.5196L536.57 104.61L512.7 104.59L531.32 32.8896L559.24 32.9096L572.73 82.8896L586.93 32.9296L609.99 32.9496L591.45 104.65L564.22 104.63L549.92 56.5096V56.5196ZM680.83 104.73L649.37 104.7L641.08 71.6196L635.27 71.5996L626.68 104.69L598.22 104.67L616.52 32.9696L645.13 32.9896L637.78 61.7096L642.97 64.4096L669.89 33.0096L697.21 33.0296L665.86 65.1596L680.84 104.73H680.83Z" fill="white"/>
</g>
<defs>
<clipPath id="clip0_106_448">
<rect width="711.43" height="129.56" fill="white"/>
</clipPath>
</defs>
</svg>
