<svg width="429" height="80" viewBox="0 0 429 80" fill="none" xmlns="http://www.w3.org/2000/svg">
<g clip-path="url(#clip0_149_680)">
<path d="M79.7964 25.2797L69.497 7.01483C67.0488 2.67398 62.5262 -0.00585938 57.6237 -0.00585938H28.3415C23.5717 -0.00585938 19.1757 2.54431 16.6853 6.68756L25.3385 5.07596L79.7904 25.2797H79.7964Z" fill="#FF0000"/>
<path d="M28.3476 80H57.6298C62.5262 80 67.0548 77.3263 69.5031 72.9793L74.9362 63.3467L22.4441 78.5983C24.2652 79.4875 26.2672 80 28.3536 80H28.3476Z" fill="#FF0000"/>
<path d="M15.0149 9.6084L1.8391 32.986C-0.609126 37.3268 -0.609126 42.6803 1.8391 47.0212L16.4802 72.986C16.8179 73.5911 17.2098 74.153 17.6259 74.6902L50.882 57.6788L15.0149 9.6084Z" fill="#FF0000"/>
<path d="M84.1381 32.986L80.3934 26.3419L52.3655 26.0332L76.2025 61.0872L84.1381 47.015C86.5863 42.6741 86.5863 37.3206 84.1381 32.9798V32.986Z" fill="#FF0000"/>
<path d="M100.6 51.6082C102.09 54.004 103.652 55.7823 105.274 56.9308C106.986 58.104 108.807 58.6907 110.731 58.6907C112.54 58.6907 114.174 58.1843 115.621 57.1778C117.075 56.1652 117.997 54.887 118.401 53.3371C118.835 51.6453 118.685 50.3177 117.949 49.3544C117.129 48.4406 115.048 47.4835 111.708 46.5017C107.155 45.1371 104.14 43.3773 102.657 41.2161C101.161 39.0056 100.908 35.9985 101.891 32.1948C103.163 27.2612 105.816 23.2414 109.85 20.1417C113.842 17.0173 118.419 15.4551 123.575 15.4551C126.482 15.4551 129.02 15.8441 131.185 16.6159C133.47 17.3939 135.527 18.5425 137.366 20.0676L130.443 30.1818C129.279 28.8419 127.935 27.8107 126.433 27.0821C124.956 26.4029 123.43 26.0571 121.85 26.0571C120.271 26.0571 118.799 26.4646 117.509 27.2921C116.279 28.0701 115.495 29.1013 115.163 30.3918C114.843 31.6391 115.024 32.6703 115.706 33.4915C116.447 34.2695 118.021 35.0043 120.433 35.7144C120.518 35.7391 120.596 35.7576 120.662 35.7638C120.729 35.7762 120.825 35.807 120.946 35.8503C126.15 37.3754 129.406 39.092 130.703 40.9938C131.565 42.1917 132.09 43.7107 132.282 45.5384C132.433 47.2797 132.222 49.2495 131.649 51.46C130.244 56.9123 127.35 61.3211 122.978 64.674C118.588 67.9898 113.481 69.6446 107.656 69.6446C104.074 69.6446 101.034 69.0457 98.532 67.8478C96.0295 66.6499 93.7561 64.7234 91.7119 62.0682L100.6 51.602V51.6082Z" fill="white"/>
<path d="M138.765 68.2807L148.926 28.8797H137.637L140.779 16.6846H177.092L173.951 28.8797H162.662L152.501 68.2807H138.771H138.765Z" fill="white"/>
<path d="M167.323 68.2807L180.626 16.6846H194.495L181.193 68.2807H167.323Z" fill="white"/>
<path d="M238.057 18.6913L234.095 34.0602C232.684 31.8744 231.236 30.2874 229.747 29.2995C228.047 28.3362 226.147 27.8546 224.061 27.8546C220.135 27.8546 216.583 29.2316 213.393 31.9793C212.29 32.9673 211.337 33.9923 210.535 35.0667C209.733 36.1349 209.022 37.3452 208.413 38.6974C207.797 40.0497 207.315 41.4205 206.959 42.8037C205.892 46.9407 206.242 50.3801 208.015 53.1278C209.818 55.8324 212.646 57.1785 216.505 57.1785C218.567 57.1785 220.72 56.6721 222.951 55.6657C224.929 54.7518 227.196 53.1772 229.747 50.942L225.773 66.3418C222.909 67.5644 220.533 68.3733 218.646 68.7746C216.276 69.318 214.033 69.5835 211.898 69.5835C209.19 69.5835 206.73 69.2501 204.517 68.577C202.304 67.9102 200.435 66.8913 198.903 65.5267C195.828 62.8963 193.802 59.6545 192.825 55.8015C191.89 51.8064 192.047 47.3791 193.301 42.5134C194.308 38.611 195.87 35.0297 197.999 31.7632C198.975 30.1887 200.085 28.7005 201.333 27.305C202.575 25.9096 204.089 24.4585 205.88 22.9518C208.943 20.414 212.133 18.5307 215.45 17.3143C218.748 16.0732 222.221 15.4434 225.87 15.4434C227.956 15.4434 230.067 15.7027 232.201 16.2214C234.288 16.8327 236.241 17.6539 238.063 18.6913H238.057Z" fill="white"/>
<path d="M229.488 68.2807L242.79 16.6846H256.388L250.346 40.1239L272.326 16.6846H288.33L263.22 41.8467L276.643 68.2807H259.5L249.05 45.1255L243.08 68.2807H229.482H229.488Z" fill="white"/>
<path d="M429 16.6964L402.28 16.6717L390.015 31.3182L393.682 16.6594L372.691 16.6408L351.199 16.6223L345.459 37.3015L340.002 16.6161L321.157 16.6038L296.187 16.5791L283.192 68.2617L304.49 68.2802L326.313 68.2988L331.728 48.3111L337.535 68.3049L359.81 68.3235L380.693 68.342L384.799 52.1642L388.761 68.3482L415.8 68.3729L405.724 41.1237L429.012 16.6902L429 16.6964ZM298.985 20.2901L316.478 20.3025L305.298 64.5754L287.853 64.563L298.985 20.2901ZM331.608 34.8996L323.557 64.5939L309.164 64.5816L320.392 20.3086L337.228 20.321L345.362 51.1824L353.925 20.3333L367.83 20.3457L356.651 64.6186L340.231 64.6063L331.608 34.8934V34.8996ZM410.548 64.668L391.577 64.6495L386.578 44.2234L383.075 44.2111L377.895 64.6433L360.733 64.631L371.768 20.358L389.02 20.3704L384.588 38.1043L387.718 39.7714L403.951 20.3827L420.425 20.3951L401.521 40.2346L410.554 64.668H410.548Z" fill="white"/>
</g>
<defs>
<clipPath id="clip0_149_680">
<rect width="429" height="80" fill="white"/>
</clipPath>
</defs>
</svg>
