<svg width="386" height="205" viewBox="0 0 386 205" fill="none" xmlns="http://www.w3.org/2000/svg">
<path d="M45.5723 160.43C43.0983 160.43 41.8613 158.605 41.8613 154.956C41.8613 151.307 42.2943 146.39 43.1602 140.205C44.026 134.082 44.459 129.722 44.459 127.124C44.459 124.526 44.2734 122.547 43.9023 121.187L6.23633 11.6211C4.87565 7.84831 2.83464 5.03418 0.113281 3.17871L1.41211 1.32324C4.38086 3.36426 7.68978 4.38477 11.3389 4.38477H45.3867C49.2214 4.38477 52.0664 3.08594 53.9219 0.488281L56.334 2.34375C55.0352 4.01367 54.3857 6.20931 54.3857 8.93066C54.3857 11.652 55.3444 15.9814 57.2617 21.9189C59.179 27.7946 61.2819 33.4538 63.5703 38.8965C69.6315 53.4928 72.6621 65.0895 72.6621 73.6865H73.8682C73.8682 65.4606 77.5173 53.833 84.8154 38.8037C92.1755 23.7126 95.8555 13.1673 95.8555 7.16797C95.8555 5.49805 95.2988 3.85905 94.1855 2.25098L96.5977 0.395508C98.4531 3.05501 101.267 4.38477 105.04 4.38477H131.295C135.006 4.38477 137.789 3.05501 139.645 0.395508L142.149 2.25098C140.974 3.7972 140.387 5.80729 140.387 8.28125C140.387 10.7552 141.5 14.9919 143.727 20.9912C146.015 26.9287 148.52 32.7116 151.241 38.3398C158.539 53.431 162.25 65.2132 162.374 73.6865H163.58C163.58 64.8421 166.611 53.2764 172.672 38.9893C178.733 24.6403 181.764 14.2188 181.764 7.72461C181.764 5.68359 181.176 3.88997 180.001 2.34375L182.413 0.488281C184.269 3.08594 187.114 4.38477 190.948 4.38477H224.996C228.645 4.38477 231.954 3.36426 234.923 1.32324L236.129 3.17871C233.408 5.03418 231.397 7.84831 230.099 11.6211C229.666 12.9199 227.779 18.208 224.439 27.4854C221.1 36.7627 217.76 46.1637 214.42 55.6885C211.08 65.1514 207.617 75.14 204.029 85.6543C195.803 109.466 191.69 122.485 191.69 124.712C191.69 126.938 192.278 128.825 193.453 130.371L190.948 132.227C189.093 129.567 186.279 128.237 182.506 128.237L148.087 128.145C144.252 128.145 141.438 129.443 139.645 132.041L137.14 130.371C138.253 128.887 138.81 126.846 138.81 124.248C138.81 121.589 137.758 117.414 135.655 111.724C133.552 105.972 131.233 100.467 128.697 95.21C122.018 81.1084 118.678 70.0374 118.678 61.9971H117.564C117.564 70.1611 114.194 81.2939 107.452 95.3955C100.711 109.435 97.3398 119.393 97.3398 125.269C97.3398 127.248 97.9274 128.949 99.1025 130.371L96.5977 132.041C94.804 129.443 91.9899 128.145 88.1553 128.145L53.8291 128.237C50.18 128.237 48.3555 129.32 48.3555 131.484L49.9326 154.214C49.9326 155.76 49.5615 157.183 48.8193 158.481C48.0771 159.78 46.9948 160.43 45.5723 160.43ZM294.587 114.6L293.103 103.096V102.075C294.402 99.7868 296.164 98.6426 298.391 98.6426L374.094 98.7354C377.867 98.7354 380.928 97.5293 383.279 95.1172L385.134 96.9727C382.413 99.694 381.052 104.889 381.052 112.559C381.052 112.559 381.052 114.352 381.052 117.939C381.052 124.186 382.413 128.732 385.134 131.577L383.279 133.433C380.867 131.021 377.805 129.814 374.094 129.814H264.343C258.839 129.814 254.788 130.866 252.19 132.969C249.221 135.443 247.737 142.432 247.737 153.936C247.737 158.574 248.448 165.409 249.871 174.438C251.293 183.53 252.004 190.365 252.004 194.941C252.004 201.559 249.654 204.868 244.954 204.868C239.882 204.868 237.346 201.466 237.346 194.663C237.346 190.024 238.367 183.159 240.408 174.067C242.449 164.976 243.469 158.079 243.469 153.379L243.005 122.3V14.126C243.005 10.2913 241.83 7.22982 239.48 4.94141L241.335 2.99316C243.871 5.40527 246.964 6.61133 250.613 6.61133H369.734C373.507 6.61133 376.599 5.40527 379.011 2.99316L380.867 4.94141C378.145 7.66276 376.785 12.7962 376.785 20.3418V25.5371C376.785 32.1549 378.145 36.7936 380.867 39.4531L379.011 41.2158C375.919 38.0615 368.651 36.4844 357.209 36.4844L311.101 38.6182C299.721 38.6182 292.484 37.041 289.392 33.8867L287.444 35.7422C289.856 38.0924 291.062 41.2158 291.062 45.1123C291.062 48.9469 289.856 52.0394 287.444 54.3896L289.392 56.1523C292.361 53.0599 298.607 51.5137 308.132 51.5137L347.004 53.6475C356.591 53.6475 362.93 52.1012 366.023 49.0088L367.971 50.8643C365.25 53.5856 363.889 58.8118 363.889 66.543V71.7383C363.889 78.1087 365.25 82.7165 367.971 85.5615L366.023 87.5098C363.054 84.4173 356.776 82.8711 347.19 82.8711L308.318 84.9121C298.793 84.9121 292.484 83.3659 289.392 80.2734L287.537 82.1289C289.392 83.9844 290.474 86.2109 290.784 88.8086C291.093 91.3444 291.278 93.1689 291.34 94.2822C291.402 95.3337 291.402 97.0036 291.34 99.292C291.278 101.519 291.247 102.848 291.247 103.281L289.67 114.414C289.67 116.641 290.474 117.754 292.082 117.754C293.752 117.754 294.587 116.702 294.587 114.6Z" fill="#FF0000"/>
</svg>
