<svg width="403" height="194" viewBox="0 0 403 194" fill="none" xmlns="http://www.w3.org/2000/svg">
<path d="M45.4867 160.43C43.0128 160.43 41.7758 158.605 41.7758 154.956C41.7758 151.307 42.2087 146.39 43.0746 140.205C43.9405 134.082 44.3734 129.722 44.3734 127.124C44.3734 124.526 44.1879 122.547 43.8168 121.187L6.15078 11.6211C4.7901 7.84831 2.74909 5.03418 0.0277328 3.17871L1.32656 1.32324C4.29531 3.36426 7.60423 4.38477 11.2533 4.38477H45.3012C49.1358 4.38477 51.9809 3.08594 53.8363 0.488281L56.2484 2.34375C54.9496 4.01367 54.3002 6.20931 54.3002 8.93066C54.3002 11.652 55.2589 15.9814 57.1762 21.9189C59.0935 27.7946 61.1964 33.4538 63.4848 38.8965C69.546 53.4928 72.5766 65.0895 72.5766 73.6865H73.7826C73.7826 65.4606 77.4317 53.833 84.7299 38.8037C92.0899 23.7126 95.7699 13.1673 95.7699 7.16797C95.7699 5.49805 95.2133 3.85905 94.1 2.25098L96.5121 0.395508C98.3676 3.05501 101.182 4.38477 104.954 4.38477H131.209C134.92 4.38477 137.704 3.05501 139.559 0.395508L142.064 2.25098C140.889 3.7972 140.301 5.80729 140.301 8.28125C140.301 10.7552 141.414 14.9919 143.641 20.9912C145.929 26.9287 148.434 32.7116 151.156 38.3398C158.454 53.431 162.165 65.2132 162.288 73.6865H163.495C163.495 64.8421 166.525 53.2764 172.586 38.9893C178.648 24.6403 181.678 14.2188 181.678 7.72461C181.678 5.68359 181.091 3.88997 179.915 2.34375L182.328 0.488281C184.183 3.08594 187.028 4.38477 190.863 4.38477H224.911C228.56 4.38477 231.869 3.36426 234.837 1.32324L236.043 3.17871C233.322 5.03418 231.312 7.84831 230.013 11.6211C229.58 12.9199 227.694 18.208 224.354 27.4854C221.014 36.7627 217.674 46.1637 214.334 55.6885C210.995 65.1514 207.531 75.14 203.944 85.6543C195.718 109.466 191.605 122.485 191.605 124.712C191.605 126.938 192.192 128.825 193.368 130.371L190.863 132.227C189.007 129.567 186.193 128.237 182.42 128.237L148.001 128.145C144.167 128.145 141.353 129.443 139.559 132.041L137.054 130.371C138.167 128.887 138.724 126.846 138.724 124.248C138.724 121.589 137.673 117.414 135.57 111.724C133.467 105.972 131.148 100.467 128.612 95.21C121.932 81.1084 118.592 70.0374 118.592 61.9971H117.479C117.479 70.1611 114.108 81.2939 107.367 95.3955C100.625 109.435 97.2543 119.393 97.2543 125.269C97.2543 127.248 97.8419 128.949 99.017 130.371L96.5121 132.041C94.7185 129.443 91.9044 128.145 88.0697 128.145L53.7436 128.237C50.0945 128.237 48.2699 129.32 48.2699 131.484L49.8471 154.214C49.8471 155.76 49.476 157.183 48.7338 158.481C47.9916 159.78 46.9092 160.43 45.4867 160.43ZM321.406 145.029L322.055 136.123C322.055 134.577 321.313 133.371 319.829 132.505C318.345 131.701 316.736 131.299 315.005 131.299C313.273 131.299 311.727 131.763 310.366 132.69C309.005 133.618 308.325 134.948 308.325 136.68V158.018C308.325 161.11 308.974 165.656 310.273 171.655C311.572 177.655 312.221 181.922 312.221 184.458C312.221 187.056 311.665 189.189 310.552 190.859C309.438 192.529 307.892 193.364 305.913 193.364C303.996 193.364 302.542 192.498 301.553 190.767C300.563 189.035 300.068 186.777 300.068 183.994C300.068 181.211 300.779 176.387 302.202 169.521C303.624 162.656 304.336 157.337 304.336 153.564C304.336 138.288 301.491 130.649 295.801 130.649C288.131 130.649 284.297 130.34 284.297 129.722V129.907C284.297 134.175 285.224 140.422 287.08 148.647C288.997 156.935 289.956 162.873 289.956 166.46C289.956 170.047 289.306 172.985 288.008 175.273C286.709 177.624 284.699 178.799 281.977 178.799C279.318 178.799 277.215 177.686 275.669 175.459C274.184 173.232 273.442 170.326 273.442 166.738C273.442 163.213 274.339 157.121 276.133 148.462C277.926 139.865 278.823 133.34 278.823 128.887C264.165 124.248 253.125 116.672 245.703 106.157C238.343 95.6429 234.663 82.6546 234.663 67.1924C234.663 35.1546 250.805 14.93 283.091 6.51855C293.543 3.7972 304.336 2.43652 315.469 2.43652C326.663 2.43652 336.157 3.05501 343.95 4.29199C351.805 5.52897 359.381 7.72461 366.68 10.8789C374.04 13.9714 380.286 17.9297 385.42 22.7539C390.615 27.5163 394.759 33.7012 397.851 41.3086C400.944 48.8542 402.49 57.4821 402.49 67.1924C402.49 86.984 396.924 102.323 385.791 113.208C374.658 124.032 359.01 130.68 338.847 133.154C338.6 133.587 338.476 134.268 338.476 135.195L338.94 140.298C338.94 143.452 338.074 145.029 336.343 145.029C334.611 145.029 333.745 143.514 333.745 140.483L334.023 135.288C334.023 133.433 332.694 132.505 330.034 132.505C329.787 133.062 329.663 134.113 329.663 135.659L330.127 144.658C330.127 146.514 329.787 148.307 329.106 150.039C328.426 151.771 327.282 152.637 325.674 152.637C322.829 152.637 321.406 150.101 321.406 145.029ZM286.338 67.2852C286.338 89.9219 297.099 101.24 318.623 101.24C340.146 101.24 350.908 89.9219 350.908 67.2852C350.908 56.8945 348.125 48.9469 342.558 43.4424C336.992 37.9378 329.013 35.1855 318.623 35.1855C308.232 35.1855 300.254 37.9378 294.687 43.4424C289.121 48.9469 286.338 56.8945 286.338 67.2852Z" fill="#FF0000"/>
</svg>
