<svg width="184" height="958" viewBox="0 0 184 958" fill="none" xmlns="http://www.w3.org/2000/svg">
<path d="M22.2588 41.959L44.3389 42.8721C51.4775 42.8721 55.9876 42.5954 57.8691 42.042C59.7507 41.5439 61.4108 41.0182 62.8496 40.4648C64.2884 39.9115 65.4505 39.1921 66.3359 38.3066C67.2214 37.4212 68.0514 36.3698 68.8262 35.1523C70.3757 32.8281 71.1504 29.1758 71.1504 24.1953C71.1504 19.2148 69.1305 15.0091 65.0908 11.5781C61.0511 8.20247 56.209 6.51465 50.5645 6.51465C48.4616 6.51465 45.335 6.92969 41.1846 7.75977C36.9788 8.58984 33.8245 9.00488 31.7217 9.00488C27.7373 9.00488 25.7451 7.59375 25.7451 4.77148C25.7451 1.94922 27.682 0.538086 31.5557 0.538086C33.7139 0.538086 36.9512 0.953125 41.2676 1.7832C45.584 2.66862 48.849 3.11133 51.0625 3.11133L73.3086 3.69238L170.843 3.69238C174.274 3.69238 177.041 2.61328 179.144 0.455078L180.887 2.11523C178.673 4.43945 177.566 7.20638 177.566 10.416V40.4648C177.566 43.7852 178.673 46.5521 180.887 48.7656L179.144 50.4258C176.985 48.2676 174.218 47.1885 170.843 47.1885L73.7236 47.1885C70.846 47.1885 65.8932 46.8841 58.8652 46.2754C51.7819 45.6667 46.3311 45.473 42.5127 45.6943V45.6113C33.3265 47.6589 26.3262 48.6826 21.5117 48.6826C16.6973 48.6826 14.29 47.7695 14.29 45.9434C14.29 43.2871 16.9463 41.959 22.2588 41.959ZM41.2676 96.5881L63.7627 98.5803C65.5335 98.5803 67 97.5842 68.1621 95.592C69.9883 92.327 70.9014 88.3426 70.9014 83.6389C70.9014 77.3303 69.6562 72.9862 67.166 70.6066C66.0592 69.5552 64.4544 69.0295 62.3516 69.0295C60.1934 69.0295 56.458 69.6659 51.1455 70.9387C45.833 72.2115 42.0977 72.8479 39.9395 72.8479C37.7259 72.8479 35.9827 72.4328 34.71 71.6027C33.3818 70.828 32.7178 69.6659 32.7178 68.1164C32.7178 66.5669 33.3818 65.3771 34.71 64.5471C35.9827 63.717 37.7259 63.302 39.9395 63.302C42.153 63.302 45.9714 63.966 51.3945 65.2941C56.8177 66.6776 60.9128 67.3693 63.6797 67.3693L165.447 67.2863C171.977 67.2863 177.428 65.2941 181.8 61.3098L183.543 63.0529C179.559 67.5354 177.566 72.9862 177.566 79.4055V104.225C177.566 107.766 177.981 110.755 178.812 113.19C179.697 115.68 181.412 117.672 183.958 119.166L182.63 121.905C179.199 120.467 175.962 119.747 172.918 119.747C170.428 119.747 164.174 124.119 154.158 132.862C141.098 144.262 132.327 151.595 127.845 154.86C123.362 158.125 119.738 160.255 116.971 161.251V166.232C120.955 163.52 126.572 162.164 133.821 162.164C137.197 162.164 142.233 162.579 148.929 163.409C155.68 164.239 160.743 164.654 164.119 164.654C173.195 164.654 179.088 161.777 181.8 156.022L183.543 157.765C179.559 162.247 177.566 167.698 177.566 174.117V191.134C177.566 197.553 179.559 203.004 183.543 207.487L181.8 209.147C177.373 205.218 171.922 203.253 165.447 203.253L64.0947 203.087C61.7152 203.087 58.1735 203.64 53.4697 204.747C48.7106 205.854 45.1413 206.407 42.7617 206.407C39.2201 206.407 37.4492 205.052 37.4492 202.34C37.4492 199.628 39.2201 198.273 42.7617 198.273C45.0859 198.273 48.5169 198.798 53.0547 199.85C57.5371 200.901 60.6361 201.427 62.3516 201.427C64.0117 201.427 65.2015 200.874 65.9209 199.767C66.6403 198.66 67 197.581 67 196.529V163.741C67 159.093 62.7666 156.769 54.2998 156.769C50.8135 156.769 45.7777 157.405 39.1924 158.678C32.5518 160.006 27.5436 160.67 24.168 160.67C19.3535 160.67 16.9463 158.872 16.9463 155.275C16.9463 151.678 19.3812 149.879 24.251 149.879C27.3499 149.879 31.86 150.571 37.7812 151.954C43.7025 153.393 48.1572 154.14 51.1455 154.196L62.1855 154.362C67.332 154.528 70.68 154.002 72.2295 152.784L122.615 113.024C123.999 111.972 126.876 110.81 131.248 109.537L131.082 104.474C128.094 107.351 124.773 108.79 121.121 108.79H73.7236L31.7217 110.367C30.8363 110.367 30.0892 110.091 29.4805 109.537C28.8164 109.039 28.4844 108.32 28.4844 107.379C28.4844 106.494 28.8717 105.747 29.6465 105.138C30.3659 104.529 31.196 104.225 32.1367 104.225L64.0117 105.221C64.6758 105.221 65.2845 104.972 65.8379 104.474C66.3913 103.976 66.668 103.395 66.668 102.731C66.668 101.292 65.5612 100.572 63.3477 100.572C61.1341 100.572 57.5094 100.932 52.4736 101.652C47.4378 102.426 43.9792 102.814 42.0977 102.814C37.8919 102.814 35.7891 101.762 35.7891 99.6594C35.7891 97.6118 37.6152 96.5881 41.2676 96.5881ZM101.282 266.681L84.3486 266.017C81.305 266.017 76.7949 266.736 70.8184 268.175C64.8971 269.669 60.5254 270.416 57.7031 270.416C54.8255 270.416 50.8135 270.887 45.667 271.828C40.5205 272.768 36.3978 273.239 33.2988 273.239C30.1445 273.239 28.5674 271.883 28.5674 269.171C28.5674 266.515 30.1169 265.187 33.2158 265.187C36.2594 265.187 40.3545 265.657 45.501 266.598C50.5921 267.594 54.4105 268.092 56.9561 268.092C59.5016 268.092 61.8258 267.207 63.9287 265.436C65.9762 263.665 67 261.562 67 259.127C67 253.593 60.2764 250.827 46.8291 250.827C43.6748 250.827 38.9434 251.242 32.6348 252.072C26.3262 252.902 22.0098 253.317 19.6855 253.317C15.1478 253.317 12.8789 251.961 12.8789 249.249C12.8789 247.866 13.4876 246.787 14.7051 246.012C15.8672 245.293 17.555 244.933 19.7686 244.933C21.9821 244.933 26.0218 245.403 31.8877 246.344C37.7536 247.34 42.0146 247.838 44.6709 247.838C47.3271 247.838 49.8451 247.672 52.2246 247.34C54.5488 247.064 57.0667 246.51 59.7783 245.68C62.4346 244.905 64.5928 243.633 66.2529 241.862C67.9131 240.146 68.7432 237.905 68.7432 235.138C68.7432 232.427 67.5534 229.964 65.1738 227.75C62.7943 225.592 60.5531 224.513 58.4502 224.513C56.292 224.513 54.0508 224.9 51.7266 225.675C49.4023 226.45 47.6038 226.837 46.3311 226.837C43.8962 226.837 42.6787 225.924 42.6787 224.098C42.6787 222.327 43.8962 221.442 46.3311 221.442L59.6123 223.434L165.281 223.351C171.811 223.351 177.262 221.359 181.634 217.374L183.294 219.035C179.365 223.462 177.4 228.913 177.4 235.387V331.178C177.4 337.653 179.365 343.104 183.294 347.531L181.634 349.191C177.207 345.262 172.226 343.297 166.692 343.297C161.159 343.297 156.87 343.657 153.826 344.376C150.783 345.096 147.85 346.701 145.027 349.191L143.367 347.531C147.296 344.598 149.261 340.945 149.261 336.574V273.571C149.261 270.472 150.312 267.816 152.415 265.602L150.838 264.025C148.624 266.128 145.94 267.179 142.786 267.179C139.632 267.179 136.948 266.128 134.734 264.025L133.157 265.602C134.928 267.428 136.062 269.614 136.561 272.16C137.059 274.76 137.308 277.832 137.308 281.373L135.564 312.916C135.564 318.063 136.007 322.601 136.893 326.53C137.778 330.514 139.576 333.917 142.288 336.74L140.628 338.4C136.09 334.249 129.809 332.174 121.785 332.174C113.761 332.174 107.757 334.083 103.772 337.902L102.112 336.159C106.595 331.123 108.836 322.988 108.836 311.754L107.093 280.709C107.093 273.128 108.476 267.954 111.243 265.187L109.583 263.61C107.48 265.657 104.713 266.681 101.282 266.681ZM80.7793 404.899L91.0723 403.571H91.9854C94.0329 404.733 95.0566 406.31 95.0566 408.302L94.9736 476.037C94.9736 479.412 96.0527 482.152 98.2109 484.254L96.5508 485.915C90.8509 482.816 80.5303 481.266 65.5889 481.266C63.2646 481.266 58.7822 481.764 52.1416 482.76C45.4456 483.812 41.0186 484.337 38.8604 484.337C36.6468 484.337 35.0143 483.978 33.9629 483.258C32.9115 482.539 32.3857 481.681 32.3857 480.685C32.3857 479.689 32.9668 478.804 34.1289 478.029C35.291 477.309 36.8958 476.95 38.9434 476.95L57.2881 478.278C62.1579 478.278 65.8102 477.42 68.2451 475.705C70.7354 473.989 71.9805 471.665 71.9805 468.732C71.9805 462.147 67.0277 458.854 57.1221 458.854C53.3037 458.854 47.7699 459.407 40.5205 460.514C33.2712 461.676 28.7334 462.257 26.9072 462.257C25.0811 462.257 23.6976 461.842 22.7568 461.012C21.7607 460.182 21.2627 459.214 21.2627 458.107C21.2627 457.056 21.7331 456.115 22.6738 455.285C23.5592 454.51 24.7767 454.123 26.3262 454.123L52.8057 455.617C62.4899 455.617 67.332 453.542 67.332 449.391L67.166 443.083V377.838C67.166 372.913 66.2253 369.289 64.3437 366.964C62.1302 364.308 55.877 362.98 45.584 362.98C41.4336 362.98 35.3187 363.616 27.2393 364.889C19.1045 366.162 12.9896 366.798 8.89453 366.798C2.97331 366.798 0.0126953 364.696 0.0126953 360.49C0.0126953 355.952 3.05632 353.683 9.14355 353.683C13.2939 353.683 19.4365 354.596 27.5713 356.422C35.7061 358.249 41.8763 359.162 46.082 359.162L73.8896 358.747H170.677C174.108 358.747 176.847 357.695 178.895 355.592L180.638 357.253C178.479 359.521 177.4 362.288 177.4 365.553V472.135C177.4 475.511 178.479 478.278 180.638 480.436L178.895 482.096C176.46 479.661 171.701 478.444 164.617 478.444H160.882C154.629 478.444 150.34 479.661 148.016 482.096L146.438 480.436C149.261 477.669 150.672 471.167 150.672 460.929L148.763 419.674C148.763 409.492 150.174 403.018 152.996 400.251L151.336 398.507C149.233 400.666 146.438 401.745 142.952 401.745C139.521 401.745 136.754 400.666 134.651 398.507L133.074 400.251C135.841 402.907 137.225 408.496 137.225 417.018L135.315 451.798C135.315 460.376 136.699 466.048 139.466 468.815L137.806 470.558C135.371 468.123 130.28 466.906 122.532 466.906H119.295C113.374 466.906 109.196 468.123 106.761 470.558L105.018 468.815C107.785 466.159 109.168 460.542 109.168 451.964L107.342 417.184C107.342 408.662 108.725 403.018 111.492 400.251L109.832 398.59C107.452 400.915 103.302 402.077 97.3809 402.077L90.9062 401.911L80.9453 400.5C78.9531 400.5 77.957 401.219 77.957 402.658C77.957 404.152 78.8978 404.899 80.7793 404.899ZM39.7734 630.358L56.9561 632.184C63.9287 632.184 69.2412 629.334 72.8936 623.635C76.6012 617.99 78.2337 612.041 77.791 605.788C77.4036 599.535 75.3008 595.163 71.4824 592.673C69.6562 591.4 67.498 590.763 65.0078 590.763L42.7617 590.348C39.7181 590.348 35.208 590.819 29.2314 591.76C23.1995 592.7 18.6618 593.171 15.6182 593.171C10.2503 593.171 7.56641 591.649 7.56641 588.605C7.56641 585.562 10.1673 584.04 15.3691 584.04C18.8001 584.04 23.7253 584.538 30.1445 585.534C36.5638 586.53 41.4336 587.083 44.7539 587.194C48.0742 587.36 55.1576 587.443 66.0039 587.443C68.8815 587.443 72.2018 586.558 75.9648 584.787C79.7279 583.016 84.902 580.221 91.4873 576.403C98.0726 572.585 103.883 569.458 108.919 567.023L110.33 564.533C107.895 563.205 106.678 560.853 106.678 557.477L106.429 550.505C106.429 545.746 107.591 542.176 109.915 539.797L108.255 538.054C106.207 538.22 101.836 538.303 95.1396 538.303L74.8027 538.22C68.7155 538.22 64.2331 538.33 61.3555 538.552L49.1533 540.129C46.8844 540.129 45.75 539.354 45.75 537.805C45.75 536.255 46.8014 535.48 48.9043 535.48L59.1973 536.808C61.6875 536.808 63.6797 536.061 65.1738 534.567C66.6126 533.128 67.332 531.219 67.332 528.84C67.332 526.515 66.3083 524.44 64.2607 522.614C62.1579 520.843 59.4463 519.958 56.126 519.958C52.8057 519.958 48.3232 520.567 42.6787 521.784C36.9788 523.001 32.8838 523.61 30.3936 523.61C25.1917 523.61 22.5908 521.756 22.5908 518.049C22.5908 514.341 25.1364 512.487 30.2275 512.487C32.6071 512.487 36.7575 513.013 42.6787 514.064C48.5999 515.171 53.3037 515.724 56.79 515.724C60.2764 515.724 63.154 514.922 65.4229 513.317C67.6364 511.712 68.7432 509.886 68.7432 507.839C68.7432 505.791 68.0514 504.048 66.668 502.609C65.2292 501.17 63.4583 500.451 61.3555 500.451L41.6826 502.692C38.307 502.692 36.6191 501.447 36.6191 498.957C36.6191 496.467 38.3346 495.221 41.7656 495.221C43.7578 495.221 47.2441 495.747 52.2246 496.799C57.1497 497.85 60.9958 498.348 63.7627 498.293C66.5296 498.237 102.334 498.21 171.175 498.21C174.606 498.21 177.345 497.158 179.393 495.055L181.053 496.716C178.95 498.874 177.898 501.613 177.898 504.933L177.898 579.308C177.898 590.93 177.539 598.732 176.819 602.717C176.155 606.756 175.436 610.27 174.661 613.259C173.886 616.302 172.918 618.848 171.756 620.895C170.649 622.998 169.238 625.101 167.522 627.204C165.862 629.362 163.953 631.078 161.795 632.35C156.87 635.283 151.64 636.75 146.106 636.75C140.573 636.75 136.035 636.307 132.493 635.422C129.007 634.592 125.714 633.18 122.615 631.188C115.919 626.872 112.571 619.291 112.571 608.444L110.662 607.78C109.279 611.266 107.369 613.591 104.935 614.753C94.3096 619.623 87.5583 623.22 84.6807 625.544C81.8584 627.868 79.5895 630.026 77.874 632.018C76.1585 634.011 74.4154 636.86 72.6445 640.568C70.8737 644.276 69.7116 646.517 69.1582 647.292C68.6602 648.067 68.2451 648.454 67.9131 648.454C62.3792 648.454 55.2682 649.201 46.5801 650.695C37.8919 652.189 32.3027 652.936 29.8125 652.936C27.3223 652.936 25.5238 652.826 24.417 652.604C23.3102 652.438 22.2311 652.023 21.1797 651.359C20.0729 650.695 19.5195 649.727 19.5195 648.454C19.5195 647.181 20.4326 646.213 22.2588 645.549C24.085 644.94 26.3262 644.636 28.9824 644.636C31.6387 644.636 36.3978 644.995 43.2598 645.715C50.0664 646.434 55.2129 646.794 58.6992 646.794C65.6165 646.794 69.0752 644.553 69.0752 640.07C69.0752 637.857 68.6878 636.196 67.9131 635.09C67.1383 634.038 65.5612 633.513 63.1816 633.513C60.7467 633.513 56.9007 634.011 51.6436 635.007C46.3864 636.003 42.4297 636.501 39.7734 636.501C37.0618 636.501 35.7061 635.477 35.7061 633.43C35.7061 631.382 37.0618 630.358 39.7734 630.358ZM150.34 575.075L149.759 555.485C149.759 547.461 150.949 542.232 153.328 539.797L151.751 538.054C149.593 540.267 146.826 541.374 143.45 541.374H137.889C134.568 541.374 131.801 540.267 129.588 538.054L127.928 539.797C130.363 542.176 131.58 547.101 131.58 554.572L130.833 575.573C130.833 581.162 131.552 585.479 132.991 588.522C134.485 591.621 137.197 593.171 141.126 593.171C143.616 593.171 145.553 592.313 146.937 590.597C148.375 588.882 149.288 586.807 149.676 584.372C150.118 581.937 150.34 578.838 150.34 575.075ZM41.2676 689.47L63.7627 691.462C65.5335 691.462 67 690.466 68.1621 688.474C69.9883 685.209 70.9014 681.224 70.9014 676.521C70.9014 670.212 69.6562 665.868 67.166 663.488C66.0592 662.437 64.4544 661.911 62.3516 661.911C60.1934 661.911 56.458 662.548 51.1455 663.82C45.833 665.093 42.0977 665.729 39.9395 665.729C37.7259 665.729 35.9827 665.314 34.71 664.484C33.3818 663.71 32.7178 662.548 32.7178 660.998C32.7178 659.449 33.3818 658.259 34.71 657.429C35.9827 656.599 37.7259 656.184 39.9395 656.184C42.153 656.184 45.9714 656.848 51.3945 658.176C56.8177 659.559 60.9128 660.251 63.6797 660.251L165.447 660.168C171.977 660.168 177.428 658.176 181.8 654.191L183.543 655.935C179.559 660.417 177.566 665.868 177.566 672.287V697.106C177.566 700.648 177.981 703.636 178.812 706.071C179.697 708.562 181.412 710.554 183.958 712.048L182.63 714.787C179.199 713.348 175.962 712.629 172.918 712.629C170.428 712.629 164.174 717.001 154.158 725.744C141.098 737.144 132.327 744.476 127.845 747.741C123.362 751.006 119.738 753.137 116.971 754.133V759.113C120.955 756.402 126.572 755.046 133.821 755.046C137.197 755.046 142.233 755.461 148.929 756.291C155.68 757.121 160.743 757.536 164.119 757.536C173.195 757.536 179.088 754.659 181.8 748.903L183.543 750.646C179.559 755.129 177.566 760.58 177.566 766.999V784.016C177.566 790.435 179.559 795.886 183.543 800.368L181.8 802.028C177.373 798.099 171.922 796.135 165.447 796.135L64.0947 795.969C61.7152 795.969 58.1735 796.522 53.4697 797.629C48.7106 798.736 45.1413 799.289 42.7617 799.289C39.2201 799.289 37.4492 797.933 37.4492 795.222C37.4492 792.51 39.2201 791.154 42.7617 791.154C45.0859 791.154 48.5169 791.68 53.0547 792.731C57.5371 793.783 60.6361 794.309 62.3516 794.309C64.0117 794.309 65.2015 793.755 65.9209 792.648C66.6403 791.542 67 790.463 67 789.411V756.623C67 751.975 62.7666 749.65 54.2998 749.65C50.8135 749.65 45.7777 750.287 39.1924 751.56C32.5518 752.888 27.5436 753.552 24.168 753.552C19.3535 753.552 16.9463 751.753 16.9463 748.156C16.9463 744.559 19.3812 742.761 24.251 742.761C27.3499 742.761 31.86 743.452 37.7812 744.836C43.7025 746.275 48.1572 747.022 51.1455 747.077L62.1855 747.243C67.332 747.409 70.68 746.883 72.2295 745.666L122.615 705.905C123.999 704.854 126.876 703.692 131.248 702.419L131.082 697.355C128.094 700.233 124.773 701.672 121.121 701.672H73.7236L31.7217 703.249C30.8363 703.249 30.0892 702.972 29.4805 702.419C28.8164 701.921 28.4844 701.201 28.4844 700.261C28.4844 699.375 28.8717 698.628 29.6465 698.02C30.3659 697.411 31.196 697.106 32.1367 697.106L64.0117 698.103C64.6758 698.103 65.2845 697.854 65.8379 697.355C66.3913 696.857 66.668 696.276 66.668 695.612C66.668 694.174 65.5612 693.454 63.3477 693.454C61.1341 693.454 57.5094 693.814 52.4736 694.533C47.4378 695.308 43.9792 695.695 42.0977 695.695C37.8919 695.695 35.7891 694.644 35.7891 692.541C35.7891 690.493 37.6152 689.47 41.2676 689.47ZM53.5527 885.461L61.5215 886.042C62.9049 886.042 63.984 885.378 64.7588 884.05C65.4782 882.722 65.8379 881.283 65.8379 879.734C65.8379 878.184 65.4229 876.801 64.5928 875.583C63.7627 874.366 62.5729 873.757 61.0234 873.757H41.9316C39.1647 873.757 35.0973 874.338 29.7295 875.5C24.3617 876.662 20.5433 877.243 18.2744 877.243C15.9502 877.243 14.041 876.745 12.5469 875.749C11.0527 874.753 10.3057 873.37 10.3057 871.599C10.3057 869.883 11.0804 868.583 12.6299 867.697C14.1794 866.812 16.1992 866.369 18.6895 866.369C21.1797 866.369 25.4961 867.006 31.6387 868.279C37.7812 869.551 42.5404 870.188 45.916 870.188C59.5846 870.188 66.4189 867.642 66.4189 862.551C66.4189 855.689 66.6956 852.258 67.249 852.258H67.083C63.2646 852.258 57.6755 853.088 50.3154 854.748C42.9001 856.464 37.5876 857.321 34.3779 857.321C31.1683 857.321 28.5397 856.74 26.4922 855.578C24.3893 854.416 23.3379 852.618 23.3379 850.183C23.3379 847.803 24.334 845.922 26.3262 844.538C28.3184 843.21 30.9193 842.546 34.1289 842.546C37.2832 842.546 42.734 843.348 50.4814 844.953C58.1735 846.558 64.0117 847.361 67.9961 847.361C72.1465 834.245 78.9255 824.367 88.333 817.727C97.7406 811.141 109.362 807.849 123.196 807.849C151.862 807.849 169.957 822.292 177.483 851.179C179.918 860.531 181.136 870.188 181.136 880.149C181.136 890.165 180.582 898.659 179.476 905.632C178.369 912.66 176.404 919.439 173.582 925.969C170.815 932.554 167.273 938.143 162.957 942.737C158.696 947.385 153.162 951.093 146.355 953.86C139.604 956.626 131.884 958.01 123.196 958.01C105.488 958.01 91.764 953.029 82.0244 943.069C72.3402 933.108 66.3913 919.107 64.1777 901.067C63.7904 900.845 63.1816 900.735 62.3516 900.735L57.7861 901.15C54.9639 901.15 53.5527 900.375 53.5527 898.825C53.5527 897.276 54.9085 896.501 57.6201 896.501L62.2686 896.75C63.9287 896.75 64.7588 895.56 64.7588 893.181C64.2607 892.959 63.32 892.849 61.9365 892.849L53.8848 893.264C52.2246 893.264 50.6198 892.959 49.0703 892.351C47.5208 891.742 46.7461 890.718 46.7461 889.279C46.7461 886.734 49.015 885.461 53.5527 885.461ZM123.113 854.084C102.859 854.084 92.7324 863.713 92.7324 882.971C92.7324 902.229 102.859 911.858 123.113 911.858C132.41 911.858 139.521 909.367 144.446 904.387C149.371 899.406 151.834 892.268 151.834 882.971C151.834 873.674 149.371 866.535 144.446 861.555C139.521 856.574 132.41 854.084 123.113 854.084Z" fill="white"/>
</svg>
